<svg xmlns="http://www.w3.org/2000/svg" xmlns:v="https://svgstorm.com"
viewBox = "0 0 784 1376"
width="784"
height="1376">
<g fill="#FFFFFF" fill-opacity="0.15" stroke="#FFFFFF" stroke-opacity="0.9" stroke-width="0.5"><path d="
M 37.00 1.00 
C 95.83 -3.00 154.97 2.49 214.00 1.00 C 273.03 -0.49 332.85 0.99 392.00 1.00 C 451.15 1.01 510.87 -0.51 570.00 1.00 C 629.13 2.51 689.01 -3.01 748.00 1.00
C 747.94 0.99 748.00 0.00 748.00 0.00
L 37.00 0.00
C 37.00 0.00 37.06 0.99 37.00 1.00 Z"/>
</g>
<g fill="#FFFFFF" fill-opacity="0.15" stroke="#FFFFFF" stroke-opacity="0.9" stroke-width="0.5"><path d="
M 23.00 5.00 
C 10.18 12.61 2.90 27.38 0.00 41.00
L 0.00 1344.00
C 2.90 1357.15 11.52 1371.25 25.00 1376.00
L 759.00 1376.00
C 771.58 1371.22 781.35 1358.78 784.00 1346.00
L 784.00 37.00
C 780.56 27.20 775.73 16.31 767.00 9.00
C 762.16 4.95 754.24 1.42 748.00 1.00
C 689.01 -3.01 629.13 2.51 570.00 1.00 C 510.87 -0.51 451.15 1.01 392.00 1.00 C 332.85 0.99 273.03 -0.49 214.00 1.00 C 154.97 2.49 95.83 -3.00 37.00 1.00
C 32.58 1.30 26.75 2.77 23.00 5.00
M 59.00 30.00 
C 62.78 32.99 66.70 35.94 71.00 38.00
C 80.93 42.75 90.56 44.44 102.00 44.00
C 106.66 43.82 111.63 43.42 116.00 42.00
C 123.58 39.54 133.10 34.02 139.00 28.00
C 139.89 27.10 141.21 25.86 142.00 25.00
C 144.42 22.36 145.81 17.70 149.00 16.00
C 152.39 14.19 157.85 15.00 162.00 15.00
C 166.85 15.00 177.84 13.51 178.00 17.00
C 178.10 19.20 175.99 23.03 175.00 25.00
C 171.84 31.31 167.73 36.93 163.00 42.00
C 160.45 44.73 157.58 47.42 155.00 50.00
C 150.15 54.85 145.00 58.69 139.00 62.00
C 131.82 65.96 124.93 68.36 117.00 70.00
C 113.27 70.77 109.36 71.83 105.00 72.00
C 100.82 72.60 96.04 72.31 92.00 72.00
C 89.29 71.83 87.01 72.57 85.00 73.00
C 89.11 81.93 92.78 91.87 94.00 102.00
C 101.87 102.15 109.68 101.98 117.00 100.00
C 124.70 98.65 132.78 97.08 140.00 94.00
C 148.11 90.54 156.50 85.14 164.00 80.00
C 167.16 77.83 169.97 75.29 173.00 73.00
C 176.86 69.14 181.36 64.94 185.00 61.00
C 187.98 56.94 191.25 53.17 194.00 49.00
C 198.98 41.44 204.28 32.29 207.00 24.00
C 207.01 22.23 207.52 21.57 208.00 20.00
C 208.26 19.17 208.46 16.62 209.00 16.00
C 211.72 12.86 226.63 14.91 231.00 15.00
C 233.20 15.04 236.61 14.21 238.00 16.00
C 236.86 18.52 236.66 21.32 236.00 24.00
C 234.85 28.63 232.69 32.90 231.00 37.00
C 230.02 39.39 229.61 42.43 229.00 45.00
C 230.00 45.00 231.00 45.00 232.00 45.00
C 238.92 47.01 248.71 43.91 255.00 42.00
C 262.63 39.68 270.89 36.65 277.00 31.00
C 279.21 28.96 282.01 26.15 284.00 24.00
C 290.32 17.16 290.73 15.00 301.00 15.00
C 306.08 15.00 318.75 13.47 319.00 17.00
C 319.23 20.23 316.38 23.58 315.00 26.00
C 310.92 33.17 307.03 38.97 301.00 45.00
C 299.74 46.26 298.22 47.78 297.00 49.00
C 291.06 54.94 285.30 59.06 278.00 63.00
C 270.93 66.81 263.08 69.30 255.00 71.00
C 247.57 72.57 239.46 71.36 232.00 73.00
C 231.42 73.13 230.01 73.80 229.00 74.00
C 222.10 75.35 215.06 78.25 209.00 82.00
C 202.48 86.03 196.28 92.82 192.00 99.00
C 189.40 102.76 187.46 106.73 186.00 111.00
C 184.86 114.34 183.41 118.50 183.00 122.00
C 182.19 128.86 182.07 138.58 184.00 145.00
C 184.38 146.27 185.45 148.46 186.00 150.00
C 188.15 155.99 191.61 162.25 196.00 167.00
C 199.96 171.28 205.34 176.12 210.00 179.00
C 216.38 182.95 223.70 184.84 231.00 186.00
C 239.03 187.28 247.14 187.10 255.00 185.00
C 262.23 183.07 270.39 179.18 276.00 174.00
C 277.93 172.22 280.18 169.82 282.00 168.00
C 287.91 162.09 291.77 153.76 294.00 146.00
C 296.03 138.95 297.31 129.69 296.00 122.00
C 295.58 120.82 296.32 119.22 296.00 118.00
C 286.81 121.04 277.67 124.43 268.00 126.00
C 268.56 133.25 266.38 139.88 263.00 146.00
C 260.61 149.59 256.76 153.16 253.00 155.00
C 246.70 158.08 238.91 158.85 232.00 157.00
C 225.32 155.21 219.47 151.03 216.00 145.00
C 211.92 137.92 210.82 130.04 213.00 122.00
C 215.36 113.28 223.32 105.42 232.00 103.00
C 239.22 100.99 247.57 102.13 255.00 101.00
C 260.38 100.18 265.81 98.64 271.00 97.00
C 273.47 96.22 276.63 95.98 279.00 95.00
C 285.30 90.22 294.06 87.48 301.00 83.00
C 305.24 80.27 309.03 77.09 313.00 74.00
C 313.27 73.79 313.68 73.20 314.00 73.00
C 317.21 68.88 321.41 65.59 325.00 62.00
C 327.59 57.75 331.21 54.06 334.00 50.00
C 339.31 42.26 342.85 33.92 347.00 26.00
C 346.78 25.62 347.00 25.00 347.00 25.00
C 347.32 23.04 348.40 17.31 350.00 16.00
C 352.51 13.94 360.68 14.77 364.00 15.00 C 367.32 15.23 376.23 13.33 378.00 16.00
C 379.18 17.78 376.52 24.12 376.00 26.00
C 374.59 31.04 373.19 39.07 370.00 43.00
C 370.00 43.50 370.00 44.00 370.00 44.00
C 371.96 46.03 378.51 43.36 382.00 44.00 C 385.49 44.64 390.87 45.49 394.00 46.00
C 397.86 46.63 401.28 46.87 405.00 48.00
C 408.22 48.98 411.18 50.71 414.00 52.00
C 442.64 65.09 460.03 89.40 465.00 120.00
C 466.39 128.57 466.52 138.37 469.00 147.00
C 473.83 163.84 486.66 176.97 503.00 183.00
C 507.39 184.62 511.19 185.74 516.00 186.00
C 520.60 186.25 525.40 186.18 530.00 186.00
C 535.22 185.80 540.24 184.94 545.00 183.00
C 551.69 180.28 559.72 175.50 565.00 170.00
C 566.10 168.86 567.10 167.24 568.00 166.00
C 572.34 159.99 576.23 153.16 578.00 146.00
C 579.81 138.71 579.32 131.70 580.00 124.00
C 582.03 100.89 594.22 77.83 613.00 63.00
C 619.64 57.76 626.47 54.38 634.00 51.00
C 635.12 50.50 636.58 49.50 638.00 49.00
C 645.02 46.53 652.29 45.00 660.00 45.00
C 663.54 44.66 667.47 44.52 671.00 45.00
C 672.33 45.00 673.67 44.95 675.00 45.00
C 676.77 45.07 677.83 45.71 679.00 46.00
C 683.08 47.00 686.97 47.73 691.00 49.00
C 694.34 50.05 697.08 51.55 700.00 53.00
C 711.12 58.50 719.23 64.60 728.00 74.00
C 734.79 81.28 740.31 89.65 744.00 99.00
C 744.17 99.43 744.00 100.00 744.00 100.00
C 747.91 104.81 749.36 115.73 750.00 122.00
C 750.69 128.68 751.67 135.46 750.00 142.00
C 755.29 139.95 760.60 137.89 766.00 136.00
C 765.65 143.32 770.35 158.19 766.00 165.00
C 764.21 167.80 757.04 170.25 754.00 172.00
C 751.01 173.72 747.86 175.10 745.00 177.00
C 737.69 181.86 730.42 188.58 724.00 195.00
C 722.61 196.39 720.11 198.55 719.00 200.00
C 715.47 205.87 711.30 211.82 708.00 218.00
C 705.80 222.12 702.70 226.88 701.00 231.00
C 699.66 234.26 698.97 238.52 698.00 242.00
C 695.02 252.70 694.53 264.28 693.00 275.00
C 692.72 282.23 690.95 286.05 686.00 291.00
C 682.88 294.12 680.91 296.19 677.00 298.00
C 670.19 301.15 663.34 301.31 656.00 299.00
C 655.08 298.71 654.65 298.27 654.00 298.00
C 649.54 296.14 646.04 294.08 643.00 290.00
C 637.75 282.93 635.97 274.60 638.00 266.00
C 639.88 258.05 646.93 248.94 655.00 246.00
C 657.31 245.16 659.46 245.19 662.00 245.00
C 663.73 244.72 667.32 243.35 669.00 243.00
C 671.73 240.62 670.62 234.24 671.99 230.99 C 673.36 227.74 674.87 223.09 676.00 220.00
C 676.45 218.77 676.81 217.35 677.00 216.00
C 670.04 214.71 662.94 214.86 656.00 216.00
C 655.51 216.08 655.00 216.00 655.00 216.00
C 651.91 216.51 648.95 217.91 646.00 219.00
C 642.31 220.36 637.32 221.92 634.00 224.00
C 628.19 227.63 621.71 235.25 618.00 241.00
C 615.75 244.48 613.44 248.46 612.00 252.00
C 610.31 256.15 609.10 261.41 609.00 266.00
C 608.99 266.50 609.00 267.00 609.00 267.00
C 609.00 270.99 608.85 275.01 609.00 279.00
C 609.16 283.30 609.70 287.00 611.00 291.00
C 611.55 292.70 612.26 294.36 613.00 296.00
C 615.84 302.30 619.81 309.20 625.00 314.00
C 627.41 316.22 630.33 318.17 633.00 320.00
C 639.15 324.22 647.65 327.97 655.00 329.00
C 661.14 329.86 669.86 329.88 676.00 329.00
C 682.91 328.01 694.21 323.44 700.00 319.00
C 701.16 318.11 702.97 316.03 704.00 315.00
C 717.97 301.03 721.54 286.07 723.00 267.00
C 723.65 258.51 725.03 250.85 728.00 243.00
C 731.40 234.00 735.68 226.20 742.00 219.00
C 742.96 217.90 744.02 216.96 745.00 216.00
C 751.69 209.43 757.62 202.14 766.00 198.00
C 765.96 207.54 769.94 222.78 766.00 232.00
C 764.47 235.58 760.94 238.62 759.00 242.00
C 754.94 249.06 751.65 257.86 751.00 266.00
C 750.36 274.02 750.64 282.20 749.00 290.00
C 747.99 294.82 745.70 299.73 744.00 304.00
C 742.53 307.69 741.03 311.47 739.00 315.00
C 734.49 322.84 728.34 328.54 722.00 335.00
C 720.97 336.05 720.10 337.07 719.00 338.00
C 713.23 342.87 706.91 346.77 700.00 350.00
C 693.45 353.06 687.10 354.73 680.00 356.00
C 672.15 357.41 664.41 358.34 656.00 357.00
C 648.50 355.81 641.06 354.84 634.00 352.00
C 626.34 348.92 619.04 344.32 613.00 339.00
C 612.39 338.46 611.53 337.43 611.00 337.00
C 603.22 330.72 596.90 323.74 592.00 315.00
C 591.32 313.78 590.65 312.34 590.00 311.00
C 586.76 304.37 583.66 298.49 582.00 291.00
C 580.19 282.83 580.34 274.61 580.00 266.00
C 579.92 264.00 580.06 262.00 580.00 260.00
C 576.21 262.33 571.79 262.67 568.00 265.00
C 563.94 266.35 556.17 269.19 552.00 269.00
C 548.31 273.23 552.15 285.96 553.00 291.00
C 558.82 325.41 580.13 356.71 612.00 373.00
C 625.51 379.91 639.79 385.57 655.00 387.00
C 661.58 387.62 669.42 387.64 676.00 387.00
C 680.13 386.60 685.54 384.94 690.00 384.00
C 692.92 383.39 696.11 382.84 699.00 382.00
C 705.92 379.99 715.59 375.81 722.00 372.00
C 726.41 369.38 731.83 365.26 736.00 362.00
C 738.87 359.75 742.34 356.66 745.00 354.00
C 749.82 349.18 755.37 343.35 759.00 338.00
C 760.46 335.85 762.66 328.21 765.00 327.00
C 767.91 325.49 767.03 335.59 767.00 340.00 C 766.97 344.41 767.10 352.94 767.00 358.00 C 766.90 363.06 767.68 370.57 766.00 375.00
C 764.55 378.84 760.79 381.72 759.00 385.00
C 755.31 391.77 751.62 401.21 751.00 409.00
C 750.51 415.18 750.46 420.85 750.00 427.00
C 755.53 426.11 760.45 423.05 766.00 422.00
C 768.81 423.76 766.70 432.45 767.00 436.00 C 767.30 439.55 767.85 448.11 766.00 451.00
C 763.91 454.27 757.24 455.29 754.00 457.00
C 751.10 458.53 746.66 461.10 744.00 463.00
C 729.89 473.08 717.92 487.58 709.00 502.00
C 705.80 507.16 703.13 512.36 701.00 518.00
C 699.99 520.66 698.82 523.27 698.00 526.00
C 695.75 533.51 695.05 541.10 694.00 549.00
C 693.49 552.81 692.35 556.86 693.00 561.00
C 695.17 562.23 697.68 562.22 700.00 563.00
C 707.46 564.88 714.79 567.22 722.00 570.00
C 722.65 564.17 720.68 557.01 723.00 552.00
C 723.00 551.00 723.00 550.00 723.00 549.00
C 722.96 540.14 726.56 531.52 730.00 524.00
C 733.08 517.27 736.30 510.95 741.00 505.00
C 742.23 503.44 743.68 502.32 745.00 501.00
C 751.46 494.54 757.89 488.09 766.00 484.00
C 765.76 493.37 770.21 509.00 766.00 518.00
C 764.45 521.31 760.80 524.09 759.00 527.00
C 755.18 533.17 751.80 541.82 751.00 549.00
C 750.06 557.39 751.07 566.22 753.00 574.00
C 754.80 581.27 758.54 588.90 763.00 595.00
C 764.05 596.43 765.26 597.12 766.00 599.00
C 771.68 613.44 763.82 633.47 767.00 649.00
C 766.17 648.59 765.13 648.03 765.00 647.00
C 759.39 641.22 755.64 631.59 750.00 625.00
C 746.41 621.41 742.54 617.54 739.00 614.00
C 734.13 609.84 729.27 606.40 724.00 603.00
C 720.54 600.77 716.47 597.66 713.00 596.00
C 708.94 595.50 704.89 593.33 701.00 592.00
C 692.55 589.11 684.20 587.18 675.00 587.00
C 671.19 586.92 667.11 586.44 664.00 586.00
C 661.07 585.89 658.70 585.90 656.00 585.00
C 649.62 582.87 643.03 577.05 640.00 571.00
C 636.50 564.00 637.73 556.76 637.00 549.00
C 635.49 532.95 630.07 516.03 622.00 502.00
C 618.80 496.44 614.93 489.79 611.00 485.00
C 610.02 483.80 608.09 482.09 607.00 481.00
C 601.79 475.79 595.75 469.11 590.00 465.00
C 585.76 461.97 579.62 458.28 575.00 456.00
C 572.85 454.94 570.27 454.06 568.00 453.00
C 560.82 449.64 552.31 446.87 545.00 445.00
C 537.03 442.96 528.34 443.63 520.00 443.00
C 520.33 447.25 517.67 450.72 518.00 455.00
C 516.67 460.82 514.39 466.51 512.00 472.00
C 516.67 472.00 521.33 472.00 526.00 472.00
C 532.25 472.50 538.96 473.39 545.00 475.00
C 548.43 475.92 551.99 477.81 555.00 479.00
C 559.49 480.78 563.72 482.54 568.00 485.00
C 575.72 489.44 581.58 495.40 587.00 502.00
C 588.12 503.36 589.87 504.59 591.00 506.00
C 595.43 511.55 599.30 518.28 602.00 525.00
C 604.88 532.16 605.90 539.28 607.00 547.00
C 608.11 554.74 608.07 564.07 610.00 572.00
C 610.66 574.72 611.77 577.10 612.00 580.00
C 614.03 585.44 618.70 592.70 623.00 597.00
C 626.34 600.34 630.14 603.51 634.00 606.00
C 641.27 610.69 650.77 614.20 659.00 615.00
C 673.32 616.39 685.92 616.22 699.00 622.00
C 718.67 630.69 732.99 645.73 742.00 665.00
C 743.27 667.72 744.04 670.20 745.00 673.00
C 746.73 678.06 748.03 682.69 749.00 688.00
C 750.30 695.14 749.62 702.83 751.00 710.00
C 752.65 718.54 756.85 728.50 762.00 736.00
C 763.42 738.07 765.11 739.65 766.00 742.00
C 769.27 750.65 766.46 764.27 766.00 773.00
C 749.30 764.96 736.36 749.67 729.00 733.00
C 726.08 726.39 725.03 720.17 724.00 713.00
C 723.26 707.80 722.59 701.72 722.00 696.00
C 721.72 693.23 720.87 690.96 721.00 688.00
C 719.40 681.11 715.93 673.91 712.00 668.00
C 709.31 663.95 705.83 660.27 702.00 657.00
C 694.67 650.74 685.85 646.19 677.00 644.00
C 673.72 643.19 670.53 643.07 667.00 643.00
C 662.67 642.91 658.33 643.06 654.00 643.00
C 654.12 644.90 655.33 646.27 656.00 648.00
C 658.18 653.62 659.59 660.12 661.00 666.00
C 663.10 674.73 668.28 670.90 676.00 674.00
C 682.96 676.80 687.42 682.59 690.00 689.00
C 692.46 695.12 692.32 699.94 693.00 707.00
C 693.81 715.35 695.50 725.65 698.00 734.00
C 698.36 735.21 699.43 737.55 700.00 739.00
C 702.29 744.77 705.62 751.54 709.00 757.00
C 717.98 771.50 729.80 785.36 744.00 795.00
C 747.92 797.66 753.81 800.93 758.00 803.00
C 760.36 804.17 764.47 804.60 766.00 807.00
C 768.54 810.98 767.92 834.75 765.00 835.00
C 760.01 835.43 755.31 829.93 750.00 831.00
C 750.30 836.68 749.18 842.69 751.00 848.00
C 752.02 854.05 752.68 860.29 755.00 866.00
C 757.56 872.30 763.32 877.72 766.00 884.00
C 767.77 888.15 767.18 896.25 767.00 901.00 C 766.82 905.75 768.61 916.22 765.00 916.00
C 761.55 915.79 757.43 910.81 755.00 909.00
C 750.91 905.96 747.53 902.78 744.00 899.00
C 740.69 895.46 738.48 891.96 736.00 888.00
C 731.78 881.25 728.47 874.81 726.00 867.00
C 723.85 860.20 723.70 854.28 723.00 847.00
C 721.52 831.67 717.61 816.18 707.00 804.00
C 704.89 801.57 701.38 798.79 699.00 797.00
C 692.73 792.29 685.54 788.78 678.00 787.00
C 670.66 785.27 662.57 785.78 655.00 785.00
C 649.28 784.41 643.44 782.81 638.00 781.00
C 628.13 777.71 620.06 772.30 612.00 766.00
C 608.75 763.46 605.95 760.95 603.00 758.00
C 597.13 752.13 592.42 745.58 589.00 738.00
C 588.56 737.01 588.42 735.91 588.00 735.00
C 584.54 727.44 582.36 720.56 581.00 712.00
C 579.77 704.27 580.78 695.65 579.00 688.00
C 577.23 680.40 572.93 670.00 568.00 664.00
C 562.62 657.45 554.46 651.29 547.00 648.00
C 542.25 645.90 535.77 643.58 531.00 643.00
C 512.23 644.76 497.01 645.99 483.00 660.00
C 481.61 661.39 479.11 663.55 478.00 665.00
C 470.03 675.40 463.61 693.31 466.00 707.00
C 466.15 707.84 466.81 709.66 467.00 711.00
C 468.14 718.92 472.15 728.67 477.00 735.00
C 478.14 736.49 480.66 738.68 482.00 740.00
C 482.94 740.92 484.11 742.14 485.00 743.00
C 489.37 747.22 496.69 751.81 502.00 754.00
C 506.20 755.73 512.35 756.88 517.00 757.00
C 517.50 757.01 518.50 757.00 519.00 757.00
C 524.33 757.00 529.67 757.00 535.00 757.00
C 532.78 755.74 532.23 749.62 531.07 746.93 C 529.92 744.24 528.72 738.12 528.00 735.00
C 527.62 733.37 527.64 730.48 527.00 729.00
C 517.45 729.86 509.29 726.74 503.00 720.00
C 500.16 716.96 498.57 714.86 497.00 711.00
C 493.83 703.22 495.08 696.15 498.00 689.00
C 498.67 687.36 499.00 685.60 500.00 684.00
C 504.94 676.16 515.15 671.86 524.00 672.00
C 547.32 672.38 550.54 693.63 552.00 712.00
C 552.61 719.74 554.73 727.63 557.00 735.00
C 559.25 742.31 562.42 750.21 566.00 757.00
C 568.00 760.78 571.41 765.42 574.00 769.00
C 577.34 773.63 581.55 778.20 586.00 782.00
C 594.83 789.55 603.98 796.93 614.00 802.00
C 620.15 805.11 627.35 808.22 634.00 810.00
C 637.51 810.94 640.88 811.72 644.00 813.00
C 655.22 815.32 668.01 812.72 678.00 818.00
C 681.28 819.73 683.42 821.10 686.00 824.00
C 692.25 831.03 692.36 837.59 693.00 847.00
C 693.45 853.62 694.41 860.60 696.00 867.00
C 699.67 881.81 706.08 897.51 715.00 910.00
C 717.41 913.37 721.21 916.73 724.00 920.00
C 726.19 922.56 728.49 924.85 731.00 927.00
C 735.27 930.64 739.65 934.90 744.00 938.00
C 746.90 940.07 751.64 940.91 754.25 943.75 C 756.86 946.60 763.74 946.30 766.00 949.00
C 768.16 951.58 767.22 960.59 767.00 964.00 C 766.78 967.41 768.76 977.28 766.00 979.00
C 762.48 981.20 753.80 972.51 750.00 973.00
C 750.00 974.00 750.00 975.00 750.00 976.00
C 749.34 978.97 750.95 984.23 751.00 987.00 C 751.05 989.77 747.96 995.83 750.00 998.00
C 750.59 997.86 751.46 997.27 752.00 997.00
C 756.43 994.82 761.37 993.63 766.00 992.00
C 763.39 999.28 770.04 1016.00 764.74 1021.74 C 759.44 1027.48 749.45 1027.57 744.00 1033.00
C 737.90 1037.36 731.48 1043.52 726.00 1049.00
C 713.71 1061.29 705.45 1076.08 700.00 1092.00
C 697.51 1099.28 694.90 1107.33 694.00 1115.00
C 693.38 1120.26 694.47 1125.72 694.00 1131.00
C 696.29 1131.76 698.81 1131.81 701.00 1133.00
C 704.38 1133.97 707.66 1134.74 711.00 1136.00
C 713.46 1136.93 719.33 1137.84 721.00 1140.00
C 721.03 1138.83 721.95 1135.87 722.00 1134.00
C 722.17 1127.77 722.51 1122.16 723.00 1116.00
C 723.70 1107.15 727.21 1098.57 731.00 1091.00
C 734.57 1083.87 738.30 1077.82 744.00 1072.00
C 744.95 1071.03 746.07 1069.91 747.00 1069.00
C 753.03 1063.08 758.44 1056.75 766.00 1053.00
C 765.87 1062.83 770.06 1078.49 766.00 1088.00
C 764.98 1090.40 762.32 1092.10 761.00 1094.00
C 756.55 1100.42 753.67 1108.47 752.00 1116.00
C 750.60 1122.30 750.25 1130.32 751.00 1137.00
C 751.75 1143.70 754.63 1152.14 758.00 1158.00
C 759.98 1161.45 764.26 1164.28 766.00 1168.00
C 768.03 1172.34 766.72 1180.04 767.00 1185.00 C 767.28 1189.96 766.84 1198.70 767.00 1203.00 C 767.16 1207.30 767.73 1218.64 765.00 1217.00
C 763.44 1216.06 762.71 1210.62 761.08 1208.92 C 759.44 1207.23 757.44 1203.98 756.00 1202.00
C 752.46 1197.14 748.28 1192.28 744.00 1188.00
C 741.97 1185.97 739.17 1182.66 737.00 1181.00
C 732.88 1177.84 726.50 1173.45 722.00 1171.00
C 706.90 1162.76 688.81 1157.63 672.00 1156.00
C 667.62 1155.58 662.38 1155.58 658.00 1156.00
C 642.46 1157.50 625.98 1162.29 612.00 1170.00
C 597.56 1177.96 583.96 1189.34 574.00 1203.00
C 572.07 1205.65 569.52 1208.44 568.00 1211.00
C 565.68 1214.91 563.73 1219.69 562.00 1224.00
C 558.93 1231.63 555.84 1238.97 554.00 1247.00
C 552.43 1253.88 552.28 1260.74 552.00 1268.00
C 551.74 1274.81 550.37 1279.67 547.00 1285.00
C 545.50 1287.38 544.09 1288.91 542.00 1291.00
C 536.86 1296.14 531.53 1298.90 524.00 1299.00
C 515.92 1299.11 509.59 1296.38 504.00 1291.00
C 503.24 1290.27 502.66 1289.80 502.00 1289.00
C 497.23 1283.16 495.29 1276.72 495.00 1269.00
C 494.70 1261.02 493.69 1253.61 492.00 1246.00
C 490.55 1239.45 488.55 1232.19 486.00 1226.00
C 484.68 1222.79 482.75 1218.21 481.00 1215.00
C 478.99 1211.31 475.59 1206.59 473.00 1203.00
C 468.82 1197.20 463.20 1191.20 458.00 1186.00
C 456.57 1184.57 454.55 1183.22 453.00 1182.00
C 447.68 1177.80 441.74 1173.03 436.00 1170.00
C 429.17 1166.39 421.39 1163.27 414.00 1161.00
C 406.85 1158.80 398.11 1156.69 391.00 1156.00
C 383.72 1155.30 376.69 1156.92 370.00 1154.00
C 362.75 1150.83 357.29 1144.35 355.00 1137.00
C 352.71 1129.65 353.21 1121.63 352.00 1114.00
C 349.54 1098.52 345.38 1082.40 337.00 1069.00
C 333.70 1063.72 328.94 1056.79 325.00 1052.00
C 323.27 1049.89 320.02 1046.76 318.00 1045.00
C 313.12 1040.74 307.18 1035.52 302.00 1032.00
C 288.54 1022.86 268.81 1015.91 253.00 1014.00
C 247.11 1013.29 240.85 1014.93 235.00 1014.00
C 227.30 1012.77 218.53 1005.98 215.00 999.00
C 211.26 991.61 210.22 983.82 213.00 976.00
C 216.32 966.66 224.82 958.36 235.00 957.00
C 241.96 956.07 249.32 957.22 255.00 961.00
C 260.52 964.67 265.35 970.83 267.00 977.00
C 269.70 987.12 267.51 987.73 278.00 991.00
C 283.53 992.72 290.56 994.45 295.00 998.00
C 295.50 998.00 296.00 998.00 296.00 998.00
C 296.68 990.50 296.25 982.09 295.00 975.00
C 293.66 967.36 291.54 959.56 287.00 953.00
C 285.02 950.14 281.58 946.58 279.00 944.00
C 273.70 938.70 267.70 934.89 261.00 932.00
C 252.78 928.45 243.37 927.26 234.00 928.00
C 229.61 928.35 224.11 929.44 220.00 931.00
C 201.55 937.98 185.74 957.79 183.00 977.00
C 182.08 983.46 182.49 991.92 184.00 998.00
C 185.30 1003.25 187.35 1008.20 190.00 1013.00
C 191.27 1015.30 192.45 1017.92 194.00 1020.00
C 198.56 1026.13 206.44 1032.50 213.00 1036.00
C 219.33 1039.38 225.82 1041.30 233.00 1042.00
C 250.11 1043.66 264.36 1044.84 279.00 1053.00
C 295.15 1062.00 308.53 1074.88 316.00 1092.00
C 319.23 1099.40 321.57 1106.72 323.00 1115.00
C 324.23 1122.14 323.55 1129.85 325.00 1137.00
C 325.18 1137.90 325.73 1139.07 326.00 1140.00
C 327.93 1146.64 330.09 1154.25 334.00 1160.00
C 337.35 1164.94 344.11 1171.68 349.00 1175.00
C 351.21 1176.50 354.47 1177.71 357.00 1179.00
C 361.17 1181.13 365.44 1183.04 370.00 1184.00
C 377.40 1185.56 385.51 1184.91 393.00 1186.00
C 401.35 1187.22 408.66 1189.65 416.00 1193.00
C 422.09 1195.78 427.78 1198.83 433.00 1203.00
C 434.14 1203.91 435.03 1205.11 436.00 1206.00
C 442.31 1211.76 447.38 1216.92 452.00 1224.00
C 455.13 1228.80 457.97 1233.49 460.00 1239.00
C 460.87 1241.35 461.24 1243.66 462.00 1246.00
C 464.44 1253.53 465.54 1260.48 466.00 1269.00
C 466.76 1282.94 470.63 1297.25 480.00 1308.00
C 481.56 1309.79 484.26 1312.48 486.00 1314.00
C 490.81 1318.19 497.22 1321.45 503.00 1324.00
C 509.00 1326.65 517.20 1328.66 524.00 1328.00
C 524.50 1327.95 525.00 1328.00 525.00 1328.00
C 531.72 1328.45 540.07 1325.77 546.00 1323.00
C 553.40 1319.54 560.13 1314.92 566.00 1309.00
C 566.54 1308.46 567.56 1307.50 568.00 1307.00
C 571.58 1302.90 574.06 1296.94 576.00 1292.00
C 579.49 1283.11 580.11 1273.19 581.00 1264.00
C 581.63 1257.47 582.06 1252.12 584.00 1246.00
C 585.58 1241.00 587.60 1236.44 590.00 1232.00
C 591.03 1230.08 591.73 1227.96 593.00 1226.00
C 599.23 1216.35 606.66 1207.94 616.00 1201.00
C 621.33 1197.04 627.06 1194.59 633.00 1192.00
C 640.51 1188.72 647.50 1187.13 656.00 1186.00
C 663.37 1185.02 670.60 1184.82 678.00 1186.00
C 686.10 1187.29 692.93 1189.50 700.00 1193.00
C 707.06 1196.49 713.53 1200.19 720.00 1205.00
C 727.19 1210.34 733.68 1218.49 738.00 1226.00
C 745.08 1238.30 750.00 1252.54 750.00 1267.00
C 750.27 1269.80 749.45 1278.94 750.00 1281.00
C 751.43 1284.73 761.17 1276.86 765.00 1277.00
C 768.33 1277.12 767.13 1286.28 767.00 1291.00 C 766.87 1295.72 768.68 1303.83 765.00 1307.00
C 761.45 1310.06 754.13 1311.55 750.00 1314.00
C 748.37 1314.97 747.57 1317.35 745.00 1317.00
C 744.04 1321.55 737.01 1323.08 734.25 1326.25 C 731.50 1329.43 727.31 1333.42 724.00 1336.00
C 723.73 1336.21 723.23 1336.74 723.00 1337.00
C 718.02 1342.64 713.59 1349.49 710.00 1356.00
C 708.05 1359.53 706.14 1363.19 705.00 1367.00
C 694.67 1367.00 684.33 1367.00 674.00 1367.00
C 675.16 1363.72 675.48 1359.47 678.00 1357.00
C 678.00 1356.50 678.00 1356.00 678.00 1356.00
C 677.91 1354.98 676.72 1355.09 676.00 1355.00
C 670.21 1354.29 661.55 1354.57 656.00 1356.00
C 655.70 1356.08 654.68 1356.83 654.00 1357.00
C 647.64 1358.62 639.63 1360.48 634.00 1364.00
C 632.71 1364.81 632.64 1365.38 631.00 1366.00
C 625.74 1367.99 618.06 1367.00 612.00 1367.00
C 603.17 1367.00 593.01 1367.83 585.00 1366.00
C 586.88 1365.32 588.32 1363.98 590.00 1363.00
C 593.01 1360.76 596.30 1358.50 599.00 1356.00
C 603.41 1351.92 608.50 1346.52 612.00 1342.00
C 613.49 1340.07 614.64 1337.98 616.00 1336.00
C 621.50 1327.99 626.47 1319.67 630.00 1311.00
C 631.40 1307.56 632.09 1303.63 633.00 1300.00
C 633.88 1296.49 635.39 1292.18 636.00 1289.00
C 637.26 1282.46 636.37 1275.76 637.00 1269.00
C 640.21 1234.82 691.64 1233.48 693.00 1269.00
C 693.38 1278.94 690.68 1284.32 684.00 1291.00
C 681.37 1293.64 679.62 1295.66 676.00 1297.00
C 672.64 1298.24 665.16 1298.01 662.33 1299.33 C 659.50 1300.65 659.67 1309.28 659.00 1312.00
C 658.36 1314.60 656.82 1316.83 656.00 1319.00
C 655.19 1321.14 654.24 1324.67 654.00 1327.00
C 655.42 1329.27 663.00 1328.21 666.00 1328.00 C 669.00 1327.79 674.85 1326.69 678.00 1326.00
C 685.28 1324.41 692.89 1321.55 699.00 1317.00
C 701.78 1314.93 705.54 1311.66 708.00 1309.00
C 716.76 1296.82 722.85 1284.72 722.00 1269.00
C 721.84 1266.09 721.48 1263.80 721.00 1261.00
C 720.29 1256.89 719.59 1251.86 718.00 1248.00
C 714.61 1239.78 707.27 1230.46 700.00 1225.00
C 693.08 1219.80 685.31 1216.03 677.00 1214.00
C 670.09 1212.32 661.95 1212.63 655.00 1214.00
C 647.77 1215.42 640.07 1218.61 634.00 1223.00
C 632.68 1223.95 631.21 1225.01 630.00 1226.00
C 622.25 1232.36 616.71 1240.10 613.00 1249.00
C 610.05 1256.08 608.70 1264.75 608.00 1272.00
C 607.44 1277.77 608.29 1283.44 607.00 1289.00
C 602.88 1306.71 592.83 1324.29 578.00 1336.00
C 575.05 1338.33 572.11 1340.06 569.00 1342.00
C 561.57 1346.65 553.66 1350.69 545.00 1353.00
C 539.84 1354.38 534.54 1355.00 529.00 1355.00
C 524.82 1355.40 520.16 1355.59 516.00 1355.00
C 511.20 1354.82 506.56 1354.22 502.00 1353.00
C 494.01 1350.87 486.83 1347.14 480.00 1343.00
C 476.36 1340.80 472.52 1338.78 469.00 1336.00
C 464.66 1332.57 460.39 1328.29 457.00 1324.00
C 454.17 1320.42 452.14 1316.75 450.00 1313.00
C 441.76 1298.53 438.93 1285.08 438.00 1268.00
C 437.74 1263.24 437.39 1257.53 436.00 1253.00
C 435.47 1251.29 433.89 1248.90 433.00 1247.00
C 429.28 1239.05 424.18 1231.49 417.00 1226.00
C 416.20 1225.39 415.65 1224.57 415.00 1224.00
C 408.82 1218.62 399.77 1215.72 392.00 1214.00
C 389.04 1213.34 384.13 1212.08 381.00 1213.00 C 377.87 1213.92 371.97 1209.76 370.00 1213.00
C 371.66 1222.46 378.19 1230.92 378.00 1241.00
C 398.43 1240.08 412.04 1259.89 410.00 1279.00
C 410.43 1282.82 410.24 1286.29 411.00 1290.00
C 414.12 1305.34 419.93 1321.91 429.00 1335.00
C 430.90 1337.74 433.81 1341.39 436.00 1344.00
C 443.10 1352.47 452.78 1359.20 461.00 1366.00
C 445.79 1365.61 424.37 1371.42 410.30 1363.70 C 396.23 1355.98 379.90 1353.59 364.00 1358.00
C 358.85 1359.76 353.30 1365.71 348.00 1367.00
C 341.54 1368.57 332.68 1367.00 326.00 1367.00
C 317.67 1367.00 309.33 1367.00 301.00 1367.00
C 301.41 1366.17 301.97 1365.12 303.00 1365.00
C 305.16 1362.46 309.34 1360.99 312.00 1359.00
C 316.29 1355.78 320.46 1351.14 324.00 1347.00
C 327.34 1343.10 331.28 1339.00 334.00 1335.00
C 338.40 1328.52 342.11 1320.37 345.00 1313.00
C 345.79 1310.99 347.44 1308.73 348.00 1307.00
C 349.64 1301.94 351.27 1295.25 352.00 1290.00
C 353.01 1282.76 353.00 1275.46 353.00 1268.00
C 353.00 1261.27 352.49 1254.41 351.00 1248.00
C 350.01 1243.75 348.52 1238.46 347.00 1234.00
C 346.00 1231.08 345.20 1227.82 344.00 1225.00
C 340.82 1217.54 335.94 1209.78 331.00 1203.00
C 328.94 1200.18 327.01 1196.44 325.00 1194.00
C 321.57 1189.83 316.03 1185.38 312.00 1182.00
C 309.37 1179.80 305.90 1177.80 303.00 1176.00
C 295.15 1171.14 287.26 1166.36 279.00 1163.00
C 275.56 1161.60 271.63 1160.91 268.00 1160.00
C 264.28 1159.07 259.41 1157.41 256.00 1157.00
C 250.25 1156.31 236.37 1152.89 235.03 1160.03 C 233.68 1167.16 231.48 1174.15 229.00 1181.00
C 228.38 1182.71 227.72 1184.32 227.00 1186.00
C 229.94 1186.67 232.18 1184.91 235.00 1185.00
C 242.53 1184.40 249.90 1185.70 257.00 1187.00
C 265.60 1188.57 272.74 1191.95 280.00 1196.00
C 282.95 1197.64 286.06 1198.99 289.00 1201.00
C 294.00 1204.43 297.75 1208.75 302.00 1213.00
C 305.86 1216.86 308.24 1220.58 311.00 1225.00
C 315.44 1232.10 319.88 1239.57 322.00 1248.00
C 324.54 1258.11 324.73 1270.21 324.00 1281.00
C 323.76 1284.56 322.69 1287.61 322.00 1291.00
C 320.43 1298.73 318.00 1306.04 314.00 1313.00
C 310.71 1318.71 306.61 1323.39 302.00 1328.00
C 300.08 1329.92 297.88 1332.12 296.00 1334.00
C 290.92 1339.08 285.51 1342.95 279.00 1346.00
C 272.05 1349.25 265.42 1351.27 258.00 1353.00
C 249.90 1354.88 240.70 1354.89 232.00 1356.00
C 230.36 1356.21 229.52 1356.59 228.00 1357.00
C 222.33 1358.53 217.26 1360.10 212.00 1363.00
C 204.52 1367.13 198.85 1367.00 190.00 1367.00
C 183.17 1367.00 175.01 1367.83 169.00 1366.00
C 171.17 1361.93 174.84 1359.16 178.00 1356.00
C 180.98 1353.02 183.88 1349.77 187.00 1347.00
C 200.03 1335.42 217.53 1328.95 235.00 1328.00
C 241.70 1327.64 248.63 1327.75 255.00 1326.00
C 270.71 1321.68 287.70 1306.90 293.00 1291.00
C 294.59 1286.24 295.72 1281.14 296.00 1276.00
C 296.58 1265.24 295.18 1255.47 291.00 1246.00
C 288.27 1239.82 283.89 1233.80 279.00 1229.00
C 278.10 1228.11 276.86 1226.79 276.00 1226.00
C 270.66 1221.12 263.60 1218.26 257.00 1216.00
C 249.92 1213.58 242.90 1212.37 235.00 1213.00
C 227.36 1213.61 218.74 1216.44 212.00 1220.00
C 209.39 1221.38 206.44 1224.07 204.00 1226.00
C 197.99 1230.75 193.68 1236.60 190.00 1243.00
C 189.25 1244.31 188.60 1245.63 188.00 1247.00
C 185.16 1253.48 183.39 1260.78 183.00 1268.00
C 182.73 1272.97 183.94 1278.46 182.00 1283.00
C 184.80 1282.48 187.45 1281.37 190.00 1280.00
C 192.50 1279.09 197.53 1277.25 200.02 1277.02 C 202.52 1276.80 208.99 1272.71 211.00 1274.00
C 210.84 1271.63 211.71 1269.66 212.00 1268.00
C 214.72 1252.59 228.36 1238.70 245.00 1242.00 C 261.64 1245.30 270.75 1261.87 267.00 1277.00
C 265.87 1281.58 264.03 1284.59 261.00 1288.00
C 256.70 1292.84 254.02 1295.15 248.00 1297.00
C 243.55 1298.37 239.23 1299.00 234.00 1299.00
C 226.30 1299.00 218.26 1300.00 211.00 1302.00
C 203.88 1303.96 195.94 1307.60 189.00 1311.00
C 187.43 1311.77 185.42 1312.22 184.00 1313.00
C 177.18 1316.76 170.13 1322.71 164.00 1328.00
C 161.60 1330.08 158.22 1332.60 156.00 1335.00
C 152.20 1339.11 148.01 1344.57 145.00 1349.00
C 143.69 1350.94 142.26 1353.81 141.00 1356.00
C 139.59 1358.46 138.24 1364.39 136.00 1366.00
C 133.26 1367.98 127.58 1367.00 124.00 1367.00
C 120.75 1367.00 108.68 1368.66 107.00 1366.00
C 105.56 1363.72 110.10 1359.30 110.00 1357.00
C 111.29 1357.19 110.02 1354.05 107.99 1355.01 C 105.95 1355.97 104.06 1354.89 102.00 1355.00
C 94.42 1355.41 86.85 1357.19 79.78 1358.78 C 72.70 1360.37 67.78 1365.14 61.00 1367.00
C 60.54 1367.13 59.50 1367.00 59.00 1367.00
C 51.32 1367.00 42.92 1367.24 36.00 1366.00
C 31.92 1365.90 28.76 1364.18 25.00 1363.00
C 31.89 1354.03 43.16 1346.36 49.00 1336.00
C 52.30 1330.88 56.55 1325.29 59.00 1320.00
C 60.10 1317.61 61.07 1314.56 62.00 1312.00
C 64.44 1305.30 66.53 1297.99 68.00 1291.00
C 69.48 1283.97 68.88 1276.05 70.00 1269.00
C 71.36 1260.48 73.46 1253.36 81.00 1248.00
C 82.37 1247.02 83.69 1246.73 85.00 1246.00
C 90.78 1242.77 95.00 1242.38 102.00 1242.00
C 108.15 1241.67 114.97 1241.29 121.00 1240.00
C 128.46 1238.40 137.86 1235.53 145.00 1232.00
C 149.50 1229.78 154.58 1226.74 159.00 1224.00
C 161.99 1222.15 165.21 1219.39 168.00 1217.00
C 180.27 1206.52 190.49 1194.63 198.00 1181.00
C 201.60 1174.47 205.16 1166.80 207.00 1160.00
C 212.84 1138.47 212.20 1114.30 206.00 1093.00
C 203.58 1084.69 198.72 1075.62 194.00 1068.00
C 192.37 1065.36 190.83 1062.46 189.00 1060.00
C 185.34 1055.07 180.46 1049.46 176.00 1045.00
C 173.27 1042.27 169.86 1039.40 167.00 1037.00
C 154.76 1026.74 136.81 1019.78 122.00 1016.00
C 115.73 1014.40 108.65 1014.00 102.00 1014.00
C 93.28 1014.00 86.34 1012.64 80.00 1007.00
C 77.05 1004.38 74.95 1002.36 73.00 999.00
C 69.00 992.11 67.81 983.75 71.00 976.00
C 73.10 970.89 75.90 967.64 80.00 964.00
C 86.44 958.28 92.27 957.47 101.00 957.00
C 108.26 956.61 115.98 955.71 123.00 954.00
C 125.29 953.44 127.72 952.71 130.00 952.00
C 134.80 950.50 140.48 949.02 145.00 947.00
C 152.56 943.62 160.18 938.02 167.00 933.00
C 167.90 932.34 169.23 931.71 170.00 931.00
C 177.57 924.05 185.25 916.29 191.00 908.00
C 195.34 901.73 198.93 894.96 202.00 888.00
C 209.26 871.56 211.37 854.56 211.00 836.00
C 210.79 825.57 208.63 813.61 205.00 804.00
C 202.11 796.37 197.58 788.10 193.00 781.00
C 190.80 777.59 188.46 774.17 186.00 771.00
C 180.01 763.26 170.84 754.60 163.00 749.00
C 156.41 744.29 147.56 740.34 140.00 737.00
C 137.88 736.06 134.90 734.55 133.00 734.00
C 127.58 732.42 121.58 731.00 116.00 730.00
C 108.77 728.70 101.54 728.09 94.00 728.00
C 93.61 729.57 94.94 732.22 93.00 733.00
C 93.00 733.50 93.06 734.51 93.00 735.00
C 92.20 741.79 89.68 749.71 87.00 756.00
C 91.18 755.18 101.71 757.30 106.00 758.00
C 119.24 758.72 129.99 763.73 141.00 770.00
C 146.41 773.08 150.46 776.46 155.00 781.00
C 158.64 784.64 162.93 787.87 166.00 792.00
C 168.39 795.21 170.12 798.52 172.00 802.00
C 175.99 809.39 179.08 817.60 181.00 826.00
C 181.82 829.57 181.92 833.21 182.00 837.00
C 182.51 841.23 182.60 845.81 182.00 850.00
C 182.15 855.87 180.71 861.59 179.00 867.00
C 173.54 884.27 164.88 897.02 151.00 909.00
C 149.18 910.57 146.88 911.74 145.00 913.00
C 138.84 917.14 133.20 920.50 126.00 923.00
C 118.48 925.61 110.49 927.68 102.00 928.00
C 86.26 928.60 70.48 932.52 59.00 944.00
C 50.07 952.93 42.71 965.03 41.00 977.00
C 40.10 983.29 40.72 991.10 42.00 997.00
C 43.80 1005.27 46.82 1013.10 52.00 1020.00
C 53.58 1022.11 55.99 1025.14 58.00 1027.00
C 63.53 1032.11 72.26 1037.69 79.00 1040.00
C 83.37 1041.49 88.23 1041.90 93.00 1042.00
C 97.14 1042.08 101.57 1042.51 105.00 1043.00
C 109.35 1043.01 113.32 1044.23 117.00 1045.00
C 119.24 1045.16 120.89 1045.39 123.00 1046.00
C 131.38 1048.42 139.03 1053.17 146.00 1058.00
C 149.13 1060.17 152.10 1062.52 155.00 1065.00
C 160.33 1069.56 165.19 1075.21 169.00 1081.00
C 171.13 1084.24 172.44 1087.59 174.00 1091.00
C 177.43 1098.49 181.00 1107.47 182.00 1116.00
C 182.78 1122.58 182.45 1130.39 182.00 1137.00
C 181.44 1145.28 178.70 1152.69 176.00 1160.00
C 173.87 1165.76 171.55 1170.82 168.00 1176.00
C 166.46 1178.25 164.67 1180.12 163.00 1182.00
C 157.41 1188.29 151.78 1193.49 145.00 1198.00
C 142.13 1199.91 139.23 1202.39 136.00 1204.00
C 132.44 1205.78 128.66 1206.70 125.00 1208.00
C 117.70 1210.60 110.27 1212.55 102.00 1213.00
C 94.33 1213.42 87.16 1213.71 80.00 1216.00
C 67.43 1220.03 61.23 1227.23 52.23 1237.23 C 43.23 1247.23 42.24 1262.83 41.00 1276.00
C 40.60 1280.28 40.07 1285.75 39.00 1290.00
C 37.06 1297.73 33.90 1305.29 30.00 1312.00
C 28.16 1315.17 25.13 1322.15 22.23 1324.23 C 19.33 1326.31 15.34 1334.07 12.00 1334.00
C 10.34 1334.17 11.00 1315.79 11.00 1312.00
C 11.00 1304.72 10.51 1297.26 11.00 1290.00
C 11.32 1285.23 13.49 1280.25 14.00 1276.00
C 14.75 1269.76 13.43 1263.26 14.00 1257.00
C 8.57 1259.47 11.94 1250.16 11.00 1247.00
C 11.00 1238.92 8.58 1230.33 16.00 1226.00
C 16.86 1225.50 16.69 1225.16 18.00 1225.00
C 24.90 1220.79 32.09 1212.91 38.00 1207.00
C 39.17 1205.83 40.98 1204.17 42.00 1203.00
C 52.74 1190.68 61.81 1173.22 66.00 1158.00
C 67.77 1151.55 68.63 1143.76 69.00 1137.00
C 69.69 1124.20 68.33 1124.77 57.00 1121.00
C 53.04 1119.68 49.02 1118.41 45.00 1117.00
C 43.58 1116.50 42.42 1115.49 41.00 1115.00
C 41.55 1130.98 40.68 1147.30 34.00 1161.00
C 31.42 1167.50 28.00 1173.17 24.00 1179.00
C 21.88 1182.09 19.67 1184.51 17.00 1187.00
C 15.78 1188.14 14.12 1191.27 12.00 1191.00
C 9.93 1190.73 11.21 1181.36 11.00 1177.00 C 10.79 1172.64 11.00 1163.77 11.00 1159.00
C 11.00 1151.11 12.03 1144.31 13.00 1137.00
C 16.36 1111.81 6.64 1084.92 11.00 1059.00
C 12.93 1060.26 14.91 1062.00 16.00 1064.00
C 16.29 1064.48 16.67 1065.65 17.00 1066.00
C 22.38 1071.76 30.71 1077.73 37.00 1082.00
C 42.38 1085.65 49.85 1088.67 56.00 1091.00
C 57.37 1091.52 58.93 1092.60 60.00 1093.00
C 66.53 1095.43 74.05 1096.89 81.00 1098.00
C 87.42 1099.02 95.02 1098.93 101.00 1100.00
C 110.76 1101.75 118.89 1106.58 123.00 1116.00
C 126.08 1123.06 126.71 1129.74 124.00 1137.00
C 120.16 1147.27 113.65 1152.64 103.00 1155.00
C 101.65 1155.30 100.28 1157.69 98.00 1156.00 C 95.71 1154.30 94.31 1158.90 94.00 1159.00
C 90.93 1165.14 90.62 1173.47 88.00 1180.00
C 87.16 1182.10 85.86 1183.92 85.00 1186.00
C 90.27 1184.17 96.34 1185.32 102.00 1185.00
C 118.26 1184.12 135.40 1174.49 145.00 1161.00
C 145.19 1159.43 145.38 1160.07 146.00 1159.00
C 149.90 1152.29 151.67 1145.54 153.00 1138.00
C 154.26 1130.84 154.44 1123.18 153.00 1116.00
C 151.67 1109.35 149.24 1100.41 145.00 1095.00
C 144.50 1094.36 143.54 1093.67 143.00 1093.00
C 137.78 1086.48 131.35 1080.76 124.00 1077.00
C 114.90 1072.35 104.76 1070.93 95.00 1070.00
C 92.70 1070.08 90.29 1070.15 88.00 1070.00
C 84.74 1069.79 81.70 1068.67 79.00 1068.00
C 71.99 1066.26 65.45 1064.56 59.00 1061.00
C 50.89 1056.53 44.62 1051.57 38.00 1045.00
C 37.37 1044.37 36.59 1043.59 36.00 1043.00
C 29.04 1035.98 23.98 1029.01 20.00 1020.00
C 16.87 1012.92 15.22 1005.65 14.00 998.00
C 12.83 990.64 12.98 983.31 14.00 976.00
C 16.33 959.34 21.80 943.77 33.00 931.00
C 33.96 929.90 35.02 928.96 36.00 928.00
C 43.35 920.80 49.03 915.43 58.00 911.00
C 59.54 910.24 61.24 908.82 63.00 908.00
C 68.35 905.50 73.30 904.32 79.00 903.00
C 85.99 901.37 93.21 900.30 101.00 900.00
C 108.31 899.72 115.54 898.19 122.00 895.00
C 126.07 892.99 130.38 890.09 134.00 887.00
C 137.24 884.24 140.39 881.30 143.00 878.00
C 145.62 874.68 148.34 870.58 150.00 867.00
C 152.63 861.32 153.76 854.38 154.00 848.00
C 154.29 840.36 153.97 833.07 152.00 826.00
C 147.22 808.86 133.39 795.19 117.00 789.00
C 116.65 788.87 116.02 788.34 116.00 788.00
C 111.97 786.37 106.45 786.17 102.00 786.00
C 89.70 785.53 79.16 787.71 69.00 794.00
C 64.82 796.59 60.54 799.46 57.00 803.00
C 51.22 808.78 45.28 818.60 43.00 826.00
C 41.81 829.88 41.28 834.89 41.00 839.00
C 40.64 844.31 41.27 849.68 41.00 855.00
C 43.72 855.63 45.41 852.94 48.00 853.00
C 54.58 850.57 61.93 847.56 69.00 847.00
C 67.56 828.40 82.57 813.75 101.00 815.00
C 109.07 815.55 114.92 819.82 120.00 826.00
C 121.58 827.93 123.06 829.45 124.00 832.00
C 128.61 844.50 124.89 860.09 113.00 867.00
C 109.50 869.04 106.15 870.08 102.00 871.00
C 98.42 871.79 94.21 872.00 90.00 872.00
C 86.69 872.00 84.01 872.52 81.00 873.00
C 69.30 874.86 58.71 877.99 48.00 883.00
C 44.96 884.42 41.84 886.24 39.00 888.00
C 33.52 891.39 28.23 895.93 23.00 900.00
C 22.73 900.21 22.32 900.80 22.00 901.00
C 20.73 902.64 11.36 912.38 11.00 911.00
C 8.49 903.17 11.96 892.20 11.00 884.00 C 10.04 875.80 10.57 865.39 12.00 858.00
C 12.24 854.95 12.88 852.24 13.00 849.00
C 13.16 844.73 13.23 840.27 13.00 836.00
C 12.60 828.69 10.73 821.85 11.00 814.00 C 11.27 806.15 10.37 799.80 17.23 796.23 C 24.09 792.66 25.54 789.67 31.00 785.00
C 34.56 781.44 38.57 777.57 42.00 774.00
C 43.03 772.74 44.01 771.21 45.00 770.00
C 48.09 766.24 51.67 761.92 54.00 758.00
C 58.04 751.19 61.37 742.50 64.00 735.00
C 71.37 714.00 71.19 687.01 64.00 666.00
C 61.37 658.31 58.19 649.90 54.00 643.00
C 52.03 639.75 49.36 634.87 47.00 632.00
C 43.52 627.76 39.60 623.13 36.00 619.00
C 32.37 614.84 26.23 610.27 22.00 607.00
C 17.23 603.31 11.86 602.28 11.00 596.00
C 10.18 590.03 9.39 578.78 11.00 573.00
C 11.48 571.28 11.79 570.68 14.00 571.00
C 14.00 564.33 14.00 557.67 14.00 551.00
C 13.02 542.92 9.51 529.75 11.00 521.00 C 12.49 512.25 19.31 507.68 27.00 503.00
C 27.48 502.71 28.65 502.33 29.00 502.00
C 35.51 495.93 41.52 488.50 47.00 482.00
C 47.84 481.00 49.29 479.89 50.00 479.00
C 54.73 473.08 59.11 463.19 62.00 456.00
C 65.20 448.04 66.79 439.28 69.00 431.00
C 70.02 423.72 69.15 415.36 69.00 408.00
C 68.85 400.68 67.78 392.99 66.00 386.00
C 62.84 373.64 55.29 357.10 47.00 347.00
C 39.97 338.44 31.61 329.87 23.00 323.00
C 20.96 321.38 18.90 319.41 17.00 318.00
C 10.01 312.80 8.09 299.20 11.00 290.00
C 11.42 288.66 12.92 289.18 14.00 289.00
C 14.00 286.33 14.00 283.67 14.00 281.00
C 14.00 276.04 13.66 270.95 14.00 266.00
C 14.60 257.22 17.12 248.79 20.00 241.00
C 21.00 238.29 21.65 235.67 23.00 233.00
C 25.63 227.80 29.12 223.15 33.00 219.00
C 37.48 214.20 42.06 209.26 47.00 205.00
C 59.37 194.33 76.65 187.89 93.00 187.00
C 98.65 186.69 104.35 187.23 110.00 187.00
C 107.27 181.57 105.76 175.76 104.00 170.00
C 101.50 162.11 100.75 155.97 91.00 158.00 C 81.25 160.03 77.98 159.49 69.00 162.00
C 61.65 164.05 53.87 166.62 47.00 170.00
C 46.95 170.35 46.33 170.83 46.00 171.00
C 38.18 175.05 31.74 182.21 24.00 186.00
C 20.57 189.43 17.35 194.69 13.00 197.00
C 12.34 197.35 12.23 199.25 11.00 199.00
C 11.00 154.67 11.00 110.33 11.00 66.00
C 11.83 66.41 12.87 66.97 13.00 68.00
C 13.83 68.67 14.32 69.32 15.00 70.00
C 18.30 73.33 21.36 76.15 24.00 80.00
C 28.03 85.87 31.41 91.47 34.00 98.00
C 37.12 105.86 38.78 113.24 40.00 122.00
C 40.89 128.36 41.41 135.27 41.00 142.00
C 41.94 141.43 42.82 140.85 44.00 141.00
C 52.18 140.16 61.08 132.95 70.00 133.00
C 68.29 121.34 69.08 109.07 65.00 98.00
C 62.50 89.97 58.92 81.43 55.00 74.00
C 52.73 69.69 49.13 64.97 46.00 61.00
C 42.81 56.96 39.64 52.64 36.00 49.00
C 32.31 45.31 27.92 41.01 24.00 38.00
C 21.78 36.30 18.47 34.66 16.00 33.00
C 18.43 23.21 29.32 16.57 39.00 16.00
C 49.77 14.07 51.47 23.04 59.00 30.00
M 475.00 17.00 
C 479.20 20.92 481.13 26.98 486.25 30.75 C 491.37 34.52 496.10 37.69 502.00 40.00
C 509.65 43.00 516.44 44.00 525.00 44.00
C 532.49 44.00 540.26 42.78 547.00 40.00
C 554.16 37.05 561.96 29.84 567.00 24.00
C 569.36 21.26 572.11 18.42 573.00 15.00
C 578.67 15.00 584.33 15.00 590.00 15.00
C 597.33 15.00 604.67 15.00 612.00 15.00
C 619.33 15.00 626.67 15.00 634.00 15.00
C 640.33 15.00 646.67 15.00 653.00 15.00
C 651.62 16.39 648.94 16.29 647.00 17.00
C 642.50 17.88 638.37 18.62 634.00 20.00
C 628.42 21.76 622.27 23.39 617.00 26.00
C 615.51 26.73 613.63 28.10 612.00 29.00
C 602.01 34.51 592.23 41.77 584.00 50.00
C 578.53 55.47 572.91 62.71 569.00 69.00
C 568.20 70.29 567.75 71.69 567.00 73.00
C 562.54 80.76 558.67 89.44 556.00 98.00
C 553.64 105.58 552.16 113.84 552.00 122.00
C 551.87 128.39 552.35 139.89 547.00 144.00
C 547.00 144.50 547.00 145.00 547.00 145.00
C 542.18 152.75 534.14 157.56 525.00 158.00
C 502.15 159.10 496.49 140.72 495.00 122.00
C 494.36 113.98 492.41 105.61 490.00 98.00
C 484.68 81.18 475.84 68.58 466.00 54.00
C 464.93 52.77 463.13 51.13 462.00 50.00
C 460.74 48.74 459.22 47.22 458.00 46.00
C 451.63 39.63 443.70 34.25 436.00 30.00
C 433.11 28.41 429.75 26.27 427.00 25.00
C 423.30 23.29 418.89 22.33 415.00 21.00
C 409.25 19.03 404.03 18.08 398.00 17.00
C 396.06 16.65 393.34 16.23 392.00 15.00
C 399.33 15.00 406.67 15.00 414.00 15.00
C 421.67 15.00 429.33 15.00 437.00 15.00
C 444.33 15.00 451.67 15.00 459.00 15.00
C 464.20 15.00 471.32 13.57 475.00 17.00
M 740.00 16.00 
C 741.82 16.11 742.74 16.62 744.00 17.00
C 749.57 18.68 752.95 20.67 757.00 25.00
C 764.11 32.61 765.00 38.68 766.00 49.00
C 766.32 52.26 767.68 60.40 767.00 64.00 C 766.32 67.60 768.53 77.91 765.00 76.00
C 761.47 74.09 760.16 65.47 756.70 62.30 C 753.24 59.14 749.50 53.43 746.00 50.00
C 745.03 49.05 743.91 47.93 743.00 47.00
C 736.97 40.86 729.29 35.20 722.00 31.00
C 718.53 29.00 714.39 26.57 711.00 25.00
C 707.67 23.46 703.55 22.21 700.00 21.00
C 694.44 19.10 688.83 18.08 683.00 17.00
C 681.00 16.63 678.27 16.69 677.00 15.00
C 684.67 15.00 692.33 15.00 700.00 15.00
C 707.33 15.00 714.67 15.00 722.00 15.00
C 728.10 15.00 734.64 15.05 740.00 16.00
M 21.00 362.00 
C 21.98 363.15 22.23 363.81 23.00 365.00
C 27.19 371.47 31.03 376.78 34.00 384.00
C 37.36 392.16 40.14 400.79 41.00 410.00
C 41.71 417.59 40.30 424.88 39.00 432.00
C 37.42 440.65 34.31 448.59 30.00 456.00
C 27.84 459.72 25.52 462.75 23.00 466.00
C 19.70 470.27 16.31 476.16 11.00 478.00
C 10.10 454.59 11.89 431.90 13.00 409.00
C 12.39 401.38 11.00 394.13 11.00 386.00
C 11.00 376.75 8.03 361.67 11.00 353.00
C 12.31 349.17 19.20 359.89 21.00 362.00
M 24.00 650.00 
C 27.74 655.03 30.55 660.40 33.00 666.00
C 36.05 672.98 39.37 681.00 40.00 689.00
C 40.63 697.00 40.82 704.02 40.00 712.00
C 39.16 720.18 36.25 727.89 33.00 735.00
C 30.43 740.62 27.78 745.91 24.00 751.00
C 20.40 755.84 15.44 760.08 11.00 764.00
C 11.67 747.83 9.67 730.34 12.00 715.00
C 12.17 713.42 12.76 712.44 13.00 711.00
C 14.05 704.58 14.05 693.93 12.00 688.00
C 11.85 687.55 12.00 686.50 12.00 686.00
C 5.97 671.81 14.44 651.33 11.00 636.00
C 16.25 639.82 20.10 645.09 24.00 650.00
M 766.00 1338.00 
C 766.96 1353.88 752.45 1367.31 737.00 1367.00
C 743.90 1355.20 754.41 1345.07 766.00 1338.00 Z"/>
</g>
<g fill="#FFFFFF" fill-opacity="0.15" stroke="#FFFFFF" stroke-opacity="0.9" stroke-width="0.5"><path d="
M 366.00 75.00 
C 360.17 76.63 353.94 79.29 349.00 83.00
C 344.08 86.69 337.48 92.88 334.00 98.00
C 325.43 110.62 326.15 123.99 325.00 139.00
C 326.47 142.42 343.57 135.06 348.00 134.00
C 356.30 132.01 352.43 130.73 354.00 123.00
C 355.60 115.12 363.01 107.34 370.00 104.00
C 376.60 100.84 386.35 101.03 393.00 104.00
C 400.58 107.39 407.13 114.96 409.00 123.00
C 408.38 126.60 410.62 129.42 410.00 133.00
C 411.62 133.63 413.39 133.52 415.00 134.00
C 418.90 135.17 434.46 136.82 436.00 141.00
C 437.79 136.43 438.79 128.71 438.00 122.00
C 437.71 119.53 436.69 116.47 436.00 114.00
C 434.55 108.79 431.99 102.40 429.00 98.00
C 425.52 92.88 418.92 86.69 414.00 83.00
C 408.40 78.79 400.76 75.39 394.00 74.00
C 393.01 73.80 391.56 73.12 391.00 73.00
C 385.99 71.90 377.07 72.18 372.00 73.00
C 370.63 73.22 367.75 74.51 366.00 75.00 Z"/>
</g>
<g fill="#FFFFFF" fill-opacity="0.15" stroke="#FFFFFF" stroke-opacity="0.9" stroke-width="0.5"><path d="
M 512.00 74.00 
C 514.19 81.59 515.83 92.26 520.00 99.00
C 521.24 101.01 520.96 103.48 525.00 102.00
C 525.28 100.73 527.55 98.24 528.00 97.00
C 530.80 89.22 531.80 80.66 535.00 73.00
C 528.46 74.95 517.46 69.96 512.00 74.00 Z"/>
</g>
<g fill="#FFFFFF" fill-opacity="0.15" stroke="#FFFFFF" stroke-opacity="0.9" stroke-width="0.5"><path d="
M 653.00 74.00 
C 631.03 78.29 610.80 99.30 609.00 122.00
C 608.32 130.60 607.63 139.14 606.00 147.00
C 604.28 155.32 601.90 162.38 598.00 170.00
C 595.75 174.40 593.13 178.37 590.00 182.00
C 586.04 186.59 581.47 190.83 577.00 195.00
C 575.22 196.66 574.03 197.65 572.00 199.00
C 564.24 204.16 556.91 207.91 548.00 211.00
C 540.85 213.48 533.18 215.00 525.00 215.00
C 519.61 215.00 515.46 215.15 512.00 217.00
C 511.35 218.95 515.73 225.64 516.32 228.68 C 516.91 231.72 518.41 239.09 520.00 242.00
C 521.59 244.91 521.31 244.69 525.00 245.00
C 531.81 245.56 539.35 242.92 546.00 242.00
C 546.94 241.87 548.09 242.25 549.00 242.00
C 555.39 240.27 562.72 236.97 569.00 234.00
C 575.69 230.83 582.88 227.55 589.00 223.00
C 591.24 221.34 593.76 218.91 596.00 217.00
C 600.63 213.04 605.08 208.58 609.00 204.00
C 611.54 201.03 614.88 197.97 617.00 195.00
C 617.09 194.87 617.87 193.23 618.00 193.00
C 622.11 185.93 626.18 178.63 629.00 171.00
C 630.21 167.73 632.18 164.02 633.00 161.00
C 634.29 156.25 635.25 150.89 636.00 146.00
C 637.26 137.77 636.61 128.56 639.00 121.00
C 641.52 113.04 647.44 107.11 655.00 104.00
C 662.37 100.96 670.03 101.52 677.00 105.00
C 684.00 108.50 689.95 114.10 692.00 122.00
C 694.40 131.25 692.85 140.88 687.00 148.00
C 684.24 151.36 681.86 153.17 678.00 155.00
C 673.31 157.22 667.80 158.73 662.00 158.00
C 660.68 161.89 660.49 166.14 659.00 170.00
C 658.05 173.30 657.18 176.75 656.00 180.00
C 655.27 182.01 653.52 183.62 654.00 186.00
C 655.00 186.11 656.73 185.53 657.00 187.00
C 663.67 187.00 670.65 185.57 677.00 186.00
C 677.50 186.03 678.00 186.00 678.00 186.00
C 683.07 183.23 689.59 182.11 695.00 179.00
C 697.07 177.81 699.11 176.41 701.00 175.00
C 702.92 173.57 705.43 171.70 707.00 170.00
C 719.20 156.81 722.00 140.66 722.00 123.00
C 722.00 123.00 722.00 122.50 722.00 122.00
C 718.79 114.65 717.52 105.23 713.00 98.00
C 702.13 80.63 676.48 68.50 656.00 73.00
C 655.39 73.13 654.05 73.80 653.00 74.00 Z"/>
</g>
<g fill="#FFFFFF" fill-opacity="0.15" stroke="#FFFFFF" stroke-opacity="0.9" stroke-width="0.5"><path d="
M 138.00 123.00 
C 134.12 124.41 130.08 125.39 126.00 126.00
C 125.83 132.80 126.01 139.50 127.00 146.00
C 128.23 154.07 130.36 162.28 133.00 170.00
C 134.95 175.70 138.00 180.79 141.00 186.00
C 142.43 188.48 143.45 191.82 145.00 194.00
C 155.08 208.12 170.41 221.52 185.00 230.00
C 199.19 238.25 214.75 242.18 231.00 244.00
C 234.99 244.45 238.79 245.39 243.00 245.00
C 244.18 236.04 246.79 227.41 250.00 219.00
C 250.13 218.54 249.81 217.41 250.00 217.00
C 247.86 213.71 238.16 217.34 235.00 215.00
C 234.50 215.00 234.00 215.00 234.00 215.00
C 224.82 214.79 215.93 211.38 208.00 208.00
C 200.79 204.92 194.37 202.01 188.00 197.00
C 186.79 196.05 186.00 195.02 185.00 194.00
C 177.47 186.32 171.14 180.03 166.00 171.00
C 164.75 168.80 163.09 166.52 162.00 164.00
C 159.62 158.47 158.35 152.81 157.00 147.00
C 156.11 143.17 155.09 139.53 155.00 135.00
C 154.40 130.05 153.37 123.66 154.00 118.00
C 152.42 116.99 147.95 120.82 146.02 121.02 C 144.10 121.23 140.01 122.45 138.00 123.00 Z"/>
</g>
<g fill="#FFFFFF" fill-opacity="0.15" stroke="#FFFFFF" stroke-opacity="0.9" stroke-width="0.5"><path d="
M 347.00 164.00 
C 330.34 169.70 314.86 178.14 302.00 191.00
C 300.50 192.50 298.47 194.41 297.00 196.00
C 290.92 202.57 286.37 210.40 282.00 218.00
C 280.66 220.33 279.00 222.77 278.00 225.00
C 272.28 237.79 268.00 251.57 268.00 266.00
C 268.00 271.00 268.00 276.00 268.00 281.00
C 268.00 284.96 268.40 288.26 269.00 292.00
C 270.65 302.37 276.75 311.93 278.00 322.00
C 280.69 327.63 285.21 333.80 289.00 339.00
C 292.27 343.49 296.04 348.04 300.00 352.00
C 303.38 355.38 307.47 359.18 311.00 362.00
C 314.87 365.08 318.87 367.45 323.00 370.00
C 330.53 374.66 339.83 379.62 348.00 382.00
C 350.87 382.84 354.04 383.38 357.00 384.00
C 362.05 385.06 368.25 386.54 373.00 387.00
C 379.77 387.66 385.74 386.49 392.00 389.00
C 399.91 392.18 407.59 400.15 409.00 409.00
C 410.18 416.41 409.03 424.95 405.00 431.00
C 402.03 435.46 397.70 438.93 393.00 441.00
C 386.94 443.68 377.37 444.32 371.00 442.00
C 366.07 440.20 359.70 434.64 357.00 430.00
C 353.90 424.67 353.73 418.04 353.00 412.00
C 343.98 409.38 334.95 406.90 326.00 404.00
C 326.60 407.02 325.00 414.96 325.00 419.00
C 325.00 435.68 333.87 450.63 347.00 461.00
C 353.59 466.20 363.15 470.73 371.00 472.00
C 377.01 472.98 385.97 472.86 392.00 472.00
C 398.65 471.05 408.22 466.92 414.00 463.00
C 416.65 461.20 418.94 457.50 422.00 456.00
C 428.30 449.70 432.23 441.41 436.00 434.00
C 436.00 433.50 435.89 432.47 436.00 432.00
C 437.70 424.65 438.63 416.95 438.00 409.00
C 437.70 405.21 435.89 401.93 436.00 398.00
C 435.04 394.52 432.71 389.48 431.00 386.00
C 430.67 386.02 430.25 385.26 430.00 385.00
C 424.87 379.67 421.21 372.53 415.00 368.00
C 412.14 365.91 408.21 364.50 405.00 363.00
C 401.04 361.15 397.27 359.90 393.00 359.00
C 384.67 357.24 374.97 357.43 367.00 356.00
C 352.92 353.48 338.59 347.89 328.00 338.00
C 326.64 336.73 325.25 335.25 324.00 334.00
C 317.69 327.69 312.62 322.39 308.00 315.00
C 305.31 310.70 302.80 305.93 301.00 301.00
C 299.86 297.87 298.75 294.27 298.00 291.00
C 296.06 282.52 296.01 273.15 297.00 265.00
C 297.86 257.85 298.86 251.77 301.00 245.00
C 301.30 244.06 301.71 243.67 302.00 243.00
C 305.64 234.48 309.33 226.63 315.00 219.00
C 318.22 214.67 322.72 210.18 327.00 207.00
C 340.17 197.20 353.83 190.57 370.00 188.00
C 377.38 186.83 384.63 186.95 392.00 188.00
C 432.00 193.71 458.69 224.15 465.00 263.00
C 466.41 271.68 466.26 281.32 469.00 290.00
C 471.68 298.48 476.18 307.70 483.00 314.00
C 488.63 319.20 495.95 323.40 503.00 326.00
C 509.74 328.49 516.60 329.00 524.00 329.00
C 527.67 329.00 531.33 329.00 535.00 329.00
C 531.30 319.92 529.31 310.25 526.00 301.00
C 524.12 300.53 521.07 302.06 520.00 300.00
C 500.44 296.29 496.47 284.51 495.00 266.00
C 494.39 258.37 492.97 250.36 491.00 243.00
C 489.13 236.01 486.25 224.82 482.00 219.00
C 481.46 218.26 480.55 217.87 480.00 217.00
C 475.28 209.60 471.10 201.60 465.00 195.00
C 462.90 192.73 460.16 190.16 458.00 188.00
C 445.95 175.95 429.72 167.97 414.00 163.00
C 406.72 160.70 398.31 158.71 391.00 158.00
C 384.51 157.37 376.47 157.24 370.00 158.00
C 362.40 158.90 354.23 161.53 347.00 164.00 Z"/>
</g>
<g fill="#FFFFFF" fill-opacity="0.15" stroke="#FFFFFF" stroke-opacity="0.9" stroke-width="0.5"><path d="
M 43.00 290.00 
C 43.37 291.05 44.45 292.70 45.00 294.00
C 49.76 305.37 58.77 317.07 70.00 323.00
C 79.88 328.22 91.50 329.44 103.00 329.00
C 107.43 328.83 111.86 328.34 116.00 327.00
C 124.78 324.15 131.61 317.76 139.00 312.00
C 139.27 311.79 139.79 311.27 140.00 311.00
C 144.71 304.95 149.73 298.00 152.00 291.00
C 154.41 283.58 154.64 274.10 154.00 266.00
C 153.30 257.18 149.77 248.39 145.00 241.00
C 143.24 238.28 141.29 235.29 139.00 233.00
C 132.40 226.40 124.78 222.07 117.00 218.00
C 117.00 218.00 116.48 218.09 116.00 218.00
C 108.35 216.57 101.23 214.28 93.00 215.00
C 58.93 218.00 31.35 256.52 43.00 290.00
M 119.00 255.00 
C 122.22 258.51 123.87 261.23 125.00 266.00
C 129.66 285.73 112.41 305.06 92.00 300.00
C 85.65 298.43 81.47 295.78 77.00 291.00
C 71.00 284.57 68.52 276.30 70.00 267.00
C 71.86 255.32 82.14 247.29 93.00 245.00
C 104.07 242.67 112.07 247.44 119.00 255.00 Z"/>
</g>
<g fill="#FFFFFF" fill-opacity="0.15" stroke="#FFFFFF" stroke-opacity="0.9" stroke-width="0.5"><path d="
M 370.00 216.00 
C 367.05 216.67 363.75 217.81 361.00 219.00
C 356.72 220.85 351.69 223.12 348.00 226.00
C 342.91 229.98 336.25 236.53 333.00 242.00
C 329.23 248.34 325.76 257.67 325.00 265.00
C 324.90 265.97 325.00 267.02 325.00 268.00
C 325.00 268.50 325.00 269.50 325.00 270.00
C 325.00 277.25 324.83 284.31 327.00 291.00
C 330.16 300.75 337.38 311.67 346.00 318.00
C 346.30 318.22 346.73 318.82 347.00 319.00
C 360.54 327.92 376.35 330.39 393.00 329.00
C 392.81 327.77 392.47 327.14 392.00 326.00
C 390.37 322.08 389.14 318.08 388.00 314.00
C 386.72 309.43 385.41 304.83 385.00 300.00
C 380.28 299.83 375.36 300.61 371.00 299.00
C 366.34 297.45 361.92 293.93 359.00 290.00
C 353.96 283.22 351.93 274.23 354.00 266.00
C 356.11 257.63 362.41 250.84 370.00 247.00
C 377.10 243.41 384.51 243.50 392.00 246.00
C 400.66 248.89 407.76 258.13 409.00 267.00
C 410.99 281.23 410.01 295.59 415.00 309.00
C 415.40 310.08 416.47 311.65 417.00 313.00
C 420.14 320.99 423.94 329.99 429.00 337.00
C 433.45 343.16 439.48 349.48 445.00 355.00
C 447.43 357.08 449.67 360.05 452.00 362.00
C 453.97 363.65 457.00 365.61 459.00 367.00
C 465.45 371.47 474.07 375.90 481.00 379.00
C 485.95 381.21 493.98 384.04 499.00 385.00
C 500.31 385.00 501.70 384.87 503.00 385.00
C 509.88 385.68 516.73 386.51 524.00 387.00
C 540.23 388.10 552.93 400.70 551.00 418.00
C 556.96 419.74 563.23 420.52 569.00 423.00
C 572.56 424.22 576.22 425.43 580.00 426.00
C 580.00 420.33 580.00 414.67 580.00 409.00
C 579.31 401.20 575.97 391.69 572.00 385.00
C 570.90 383.15 568.46 380.85 567.00 379.00
C 556.55 365.77 541.43 358.67 525.00 358.00
C 517.48 357.69 510.13 356.82 503.00 355.00
C 480.67 349.30 461.58 334.13 450.00 314.00
C 445.64 306.41 441.87 298.87 440.00 290.00
C 438.32 282.01 438.78 274.32 438.00 266.00
C 437.74 263.22 436.69 259.79 436.00 257.00
C 434.79 252.10 432.73 246.15 430.00 242.00
C 426.12 236.11 419.76 229.16 414.00 225.00
C 410.38 222.39 406.09 220.51 402.00 219.00
C 399.04 217.91 396.05 216.70 393.00 216.00
C 385.90 214.37 377.09 214.38 370.00 216.00 Z"/>
</g>
<g fill="#FFFFFF" fill-opacity="0.15" stroke="#FFFFFF" stroke-opacity="0.9" stroke-width="0.5"><path d="
M 182.00 279.00 
C 182.00 283.92 180.96 287.86 180.00 292.00
C 178.17 299.86 176.10 306.87 172.00 314.00
C 169.40 318.52 166.04 322.03 163.00 326.00
C 159.45 330.63 155.65 334.43 151.00 338.00
C 147.05 341.02 143.45 344.44 139.00 347.00
C 131.97 351.04 124.73 353.20 117.00 355.00
C 108.04 357.08 96.32 359.92 87.00 357.00
C 84.49 359.16 88.43 365.79 89.78 369.22 C 91.12 372.65 92.04 380.13 93.00 384.00
C 93.22 384.89 94.08 385.51 94.00 387.00
C 96.51 385.25 101.87 387.90 105.00 387.00 C 108.13 386.10 112.70 386.71 116.00 386.00
C 117.59 385.66 120.04 384.47 122.00 384.00
C 127.62 382.65 133.61 381.19 139.00 379.00
C 147.95 375.36 156.98 369.84 165.00 364.00
C 166.47 362.93 168.86 361.94 170.00 361.00
C 174.77 357.08 181.13 350.72 185.00 346.00
C 186.78 343.83 189.25 340.36 191.00 338.00
C 195.83 331.51 201.02 322.24 204.00 315.00
C 207.02 307.66 208.75 298.85 210.00 291.00
C 211.38 282.32 215.22 269.65 206.00 267.00
C 205.50 267.00 204.49 267.07 204.00 267.00
C 197.93 266.16 191.24 263.51 186.00 261.00
C 185.59 260.81 184.41 261.19 184.00 261.00
C 181.96 262.33 182.24 276.51 182.00 279.00 Z"/>
</g>
<g fill="#FFFFFF" fill-opacity="0.15" stroke="#FFFFFF" stroke-opacity="0.9" stroke-width="0.5"><path d="
M 232.00 316.00 
C 231.47 320.58 229.54 324.72 228.00 329.00
C 229.31 329.15 230.70 328.80 232.00 329.00
C 238.38 329.99 247.48 328.84 250.00 327.00
C 250.28 323.35 247.10 317.49 246.00 314.00
C 245.17 311.37 242.05 297.26 238.08 300.08 C 234.11 302.91 233.42 311.61 232.00 316.00 Z"/>
</g>
<g fill="#FFFFFF" fill-opacity="0.15" stroke="#FFFFFF" stroke-opacity="0.9" stroke-width="0.5"><path d="
M 219.00 362.00 
C 216.05 363.16 212.73 364.17 210.00 366.00
C 202.71 370.90 194.14 379.16 190.00 387.00
C 188.47 389.90 187.00 393.80 186.00 397.00
C 184.83 400.74 183.43 405.15 183.00 409.00
C 182.11 416.97 182.70 424.34 181.00 432.00
C 179.15 440.33 175.94 447.70 172.00 455.00
C 169.58 459.49 167.30 463.82 164.00 468.00
C 160.08 472.97 155.02 478.04 150.00 482.00
C 146.41 484.83 142.87 486.75 139.00 489.00
C 131.88 493.14 124.24 496.26 116.00 498.00
C 109.63 499.34 103.72 499.35 97.00 500.00
C 92.51 500.43 86.62 501.46 82.00 503.00
C 77.94 504.35 73.80 505.81 70.00 508.00
C 63.32 511.84 55.17 518.53 51.00 525.00
C 46.46 532.03 43.51 540.73 42.00 549.00
C 40.53 557.05 41.35 564.17 43.00 572.00
C 43.86 576.08 45.14 580.25 47.00 584.00
C 48.60 587.23 51.60 592.13 54.00 595.00
C 58.06 599.85 63.90 603.71 69.00 607.00
C 76.48 611.82 85.04 614.51 94.00 615.00
C 101.31 615.40 109.28 615.18 116.00 613.00
C 133.73 607.24 148.58 589.84 153.00 572.00
C 153.67 569.29 153.89 566.95 154.00 564.00
C 154.23 558.01 153.83 551.99 154.00 546.00
C 150.33 547.37 146.72 548.83 143.00 550.00
C 137.87 551.85 132.59 553.59 127.00 554.00
C 126.77 560.27 126.10 566.53 123.00 572.00
C 121.12 575.57 118.23 578.60 115.00 581.00
C 108.82 585.59 100.89 587.05 93.00 586.00
C 85.46 585.00 77.77 579.56 74.00 573.00
C 69.94 565.95 68.43 557.01 71.00 549.00
C 74.19 539.04 84.16 531.47 94.00 530.00
C 104.44 528.44 115.65 526.70 126.00 526.00
C 130.24 524.92 135.71 522.85 140.00 521.00
C 147.50 517.77 155.40 513.77 162.00 509.00
C 166.05 506.08 170.08 502.35 174.00 499.00
C 178.27 495.35 182.62 491.16 186.00 487.00
C 188.05 484.48 190.21 481.48 192.00 479.00
C 196.97 472.11 200.92 463.85 204.00 456.00
C 206.97 448.44 210.06 438.75 211.00 431.00
C 211.93 423.35 211.11 415.38 213.00 408.00
C 215.25 399.19 222.04 390.99 231.00 388.00
C 237.97 385.68 246.61 386.80 253.00 390.00
C 260.00 393.50 265.81 402.50 267.00 410.00
C 267.41 412.60 266.69 415.38 267.00 418.00
C 270.52 419.51 274.34 419.89 278.00 421.00
C 284.10 422.75 290.07 424.74 296.00 427.00
C 295.58 421.04 296.56 414.95 296.00 409.00
C 295.34 401.94 292.36 393.29 289.00 387.00
C 286.64 382.57 282.54 378.61 280.00 374.00
C 275.87 369.62 269.40 365.38 264.00 363.00
C 260.90 361.63 256.98 359.76 254.00 359.00
C 247.43 357.32 237.95 357.03 231.00 358.00
C 226.93 358.57 222.82 360.50 219.00 362.00 Z"/>
</g>
<g fill="#FFFFFF" fill-opacity="0.15" stroke="#FFFFFF" stroke-opacity="0.9" stroke-width="0.5"><path d="
M 609.00 419.00 
C 609.00 423.04 608.98 427.23 610.00 431.00
C 610.35 432.30 611.37 434.44 612.00 436.00
C 614.76 442.83 618.71 449.71 624.00 455.00
C 627.25 458.25 631.36 461.75 635.00 464.00
C 640.92 467.67 647.29 469.73 654.00 471.00
C 661.48 472.42 669.50 472.29 677.00 471.00
C 684.66 469.68 692.73 466.48 699.00 462.00
C 701.18 460.44 703.95 457.89 706.00 456.00
C 717.40 445.46 724.50 426.45 723.00 411.00
C 722.87 409.61 721.00 405.43 721.00 404.00
C 712.06 406.59 703.34 409.99 694.00 411.00
C 694.87 421.49 690.98 430.45 683.00 437.00
C 681.17 438.50 680.12 438.94 678.00 440.00
C 670.90 443.55 661.79 444.56 654.00 441.00
C 649.58 438.98 646.06 436.07 643.00 432.00
C 637.80 426.54 637.76 418.30 637.00 411.00
C 628.93 409.64 620.54 408.09 613.00 405.00
C 612.40 404.75 609.46 402.78 609.00 403.00
C 609.00 408.33 609.00 413.67 609.00 419.00 Z"/>
</g>
<g fill="#FFFFFF" fill-opacity="0.15" stroke="#FFFFFF" stroke-opacity="0.9" stroke-width="0.5"><path d="
M 139.00 408.00 
C 137.61 408.44 135.77 409.58 134.00 410.00
C 131.33 410.63 128.49 410.64 126.00 412.00
C 128.03 429.01 112.49 445.82 95.00 443.00
C 95.37 444.54 93.57 445.40 94.00 447.00
C 92.87 449.57 91.62 453.58 91.00 456.00
C 89.61 461.46 88.37 466.81 86.00 472.00
C 88.33 472.00 90.67 472.00 93.00 472.00
C 101.53 472.17 109.28 471.85 117.00 469.00
C 133.59 462.88 147.10 449.07 152.00 432.00
C 153.04 428.39 155.02 421.80 154.00 418.00 C 152.98 414.20 156.28 406.05 153.00 404.00
C 149.60 403.71 142.33 406.94 139.00 408.00 Z"/>
</g>
<g fill="#FFFFFF" fill-opacity="0.15" stroke="#FFFFFF" stroke-opacity="0.9" stroke-width="0.5"><path d="
M 466.00 416.00 
C 466.00 421.19 465.97 426.07 465.00 431.00
C 463.97 436.26 462.28 444.94 459.00 449.00
C 459.00 449.00 459.17 449.57 459.00 450.00
C 458.20 452.05 457.06 454.08 456.00 456.00
C 453.31 460.88 450.33 465.52 447.00 470.00
C 444.03 474.00 439.94 478.07 436.00 481.00
C 429.92 486.31 421.43 491.01 414.00 494.00
C 407.48 496.62 401.01 497.86 394.00 499.00
C 386.73 500.18 377.98 500.20 370.00 500.00
C 369.59 501.56 370.46 502.69 371.00 504.00
C 372.13 510.57 375.37 517.41 377.00 524.00
C 378.98 532.01 384.59 529.83 392.00 529.00
C 407.44 527.27 423.56 522.49 437.00 515.00
C 443.52 511.37 450.16 505.99 456.00 501.00
C 470.55 488.56 481.55 472.48 488.00 455.00
C 491.37 445.86 492.68 440.52 494.33 430.33 C 495.97 420.14 498.48 411.92 487.00 409.00
C 484.76 408.84 483.06 408.55 481.00 408.00
C 477.45 407.06 474.08 405.49 471.00 404.00
C 470.05 403.78 468.96 404.16 468.00 404.00
C 466.61 404.69 466.14 414.52 466.00 416.00 Z"/>
</g>
<g fill="#FFFFFF" fill-opacity="0.15" stroke="#FFFFFF" stroke-opacity="0.9" stroke-width="0.5"><path d="
M 233.00 457.00 
C 231.95 462.55 228.89 467.47 228.00 473.00
C 230.05 471.54 232.59 472.09 235.00 472.00
C 241.26 471.76 248.01 471.74 254.00 473.00
C 259.75 474.21 265.83 476.95 271.00 479.00
C 273.35 479.93 275.67 480.81 278.00 482.00
C 287.42 486.81 294.68 493.16 302.00 501.00
C 303.62 502.73 304.60 504.12 306.00 506.00
C 310.69 512.31 315.15 518.46 318.00 526.00
C 320.45 532.48 321.88 538.09 323.00 545.00
C 324.35 553.34 324.38 563.35 323.00 572.00
C 321.56 581.08 318.93 588.06 315.00 596.00
C 311.45 603.17 307.78 609.22 302.00 615.00
C 300.74 616.26 299.22 617.78 298.00 619.00
C 291.68 625.32 285.78 629.15 278.00 633.00
C 270.65 636.64 264.38 639.50 256.00 641.00
C 240.39 643.80 222.97 642.99 209.00 652.00
C 206.78 653.44 204.15 656.16 202.00 658.00
C 195.53 664.47 188.81 672.80 186.00 681.00
C 186.05 683.84 184.65 686.34 184.00 689.00
C 182.25 696.17 182.56 704.80 184.00 712.00
C 184.61 715.06 185.68 717.85 186.00 721.00
C 190.33 732.45 200.55 743.53 211.00 750.00
C 215.57 752.83 220.84 754.78 226.00 756.00
C 228.67 756.63 232.74 757.73 235.00 758.00
C 249.98 759.81 267.20 752.99 278.00 743.00
C 280.74 740.47 283.91 736.79 286.00 734.00
C 290.92 727.45 293.61 719.93 295.00 712.00
C 295.49 709.19 297.19 703.98 296.00 701.00 C 294.81 698.02 298.08 690.21 296.00 688.00
C 295.18 688.05 294.72 688.70 294.00 689.00
C 285.63 692.46 276.87 694.96 268.00 697.00
C 267.89 702.12 268.20 708.15 265.00 712.00
C 262.64 717.66 260.21 720.81 255.00 724.00
C 247.95 728.32 241.49 729.96 233.00 728.00
C 231.63 727.68 231.01 727.41 230.00 727.00
C 223.18 724.23 216.83 719.20 214.00 712.00
C 213.83 711.57 214.00 711.00 214.00 711.00
C 209.23 705.12 212.31 693.81 215.00 688.00
C 218.31 680.84 223.59 676.57 231.00 674.00
C 238.28 671.48 247.04 672.14 255.00 671.00
C 257.29 670.67 259.71 670.53 262.00 670.00
C 266.92 668.86 273.01 667.05 278.00 665.00
C 278.00 665.00 278.50 665.00 279.00 665.00
C 286.96 660.83 295.21 657.13 303.00 652.00
C 310.57 647.01 318.80 641.11 325.00 634.00
C 328.84 629.59 332.82 623.68 336.00 619.00
C 344.68 606.22 351.56 587.34 353.00 572.00
C 353.69 564.68 353.50 556.34 353.00 549.00
C 352.51 541.73 351.25 532.91 349.00 526.00
C 348.66 524.94 347.47 523.34 347.00 522.00
C 344.73 515.56 342.49 509.00 339.00 503.00
C 334.82 495.81 329.57 488.52 324.00 482.00
C 317.69 474.61 310.05 468.19 302.00 463.00
C 298.39 460.67 294.62 457.79 291.00 456.00
C 287.25 454.14 282.96 452.50 279.00 451.00
C 271.25 448.07 263.14 445.51 255.00 444.00
C 248.73 443.30 242.53 442.62 236.00 443.00
C 235.28 447.75 234.28 452.42 233.00 457.00 Z"/>
</g>
<g fill="#FFFFFF" fill-opacity="0.15" stroke="#FFFFFF" stroke-opacity="0.9" stroke-width="0.5"><path d="
M 231.00 501.00 
C 228.84 501.39 227.27 501.83 225.00 502.00
C 220.40 503.26 213.17 506.31 209.00 509.00
C 203.61 512.48 195.51 520.56 192.00 526.00
C 189.99 529.11 187.15 534.65 186.00 538.00
C 185.73 541.39 184.64 544.63 184.00 548.00
C 182.42 556.36 182.44 565.98 181.00 574.00
C 179.66 581.50 177.50 588.16 174.00 595.00
C 170.82 601.21 167.36 605.69 163.00 611.00
C 160.89 613.57 158.55 616.45 156.00 619.00
C 150.74 624.26 145.47 628.43 139.00 632.00
C 131.60 636.08 124.18 639.22 116.00 641.00
C 106.65 644.17 96.08 642.65 86.00 643.00
C 87.60 650.82 91.81 658.06 93.00 666.00
C 93.14 666.94 93.00 668.05 93.00 669.00
C 93.09 669.50 94.83 670.86 94.00 672.00
C 101.48 672.22 108.81 671.99 116.00 671.00
C 131.96 667.64 148.42 661.41 162.00 652.00
C 165.74 649.41 170.49 646.06 174.00 643.00
C 176.84 640.53 179.59 636.82 182.00 634.00
C 186.17 629.12 190.79 624.19 194.00 619.00
C 202.57 605.16 209.57 588.29 211.00 572.00
C 211.69 564.19 210.88 556.40 213.00 549.00
C 215.76 539.39 223.10 533.97 232.00 531.00
C 240.34 528.22 248.72 529.53 256.00 535.00
C 260.93 538.70 264.18 543.32 266.00 549.00
C 268.88 557.99 267.79 565.41 263.00 573.00
C 261.06 576.07 259.13 578.65 256.00 581.00
C 250.37 585.23 243.46 586.94 236.00 586.00
C 235.21 596.19 231.39 605.55 228.00 615.00
C 229.33 615.00 230.67 615.00 232.00 615.00
C 238.24 616.06 247.09 615.51 253.00 614.00
C 261.17 611.91 271.25 606.65 278.00 601.00
C 279.39 599.83 281.88 597.34 283.00 596.00
C 288.27 589.71 293.02 580.89 295.00 573.00
C 296.72 566.17 297.01 556.22 296.00 549.00
C 294.88 541.00 290.88 531.56 286.00 525.00
C 283.63 521.81 281.02 517.63 278.00 515.00
C 265.40 504.02 247.59 498.01 231.00 501.00 Z"/>
</g>
<g fill="#FFFFFF" fill-opacity="0.15" stroke="#FFFFFF" stroke-opacity="0.9" stroke-width="0.5"><path d="
M 653.00 502.00 
C 653.01 501.79 654.86 505.66 655.00 506.00
C 657.50 512.15 658.42 521.22 662.00 527.00
C 662.45 527.72 661.64 529.22 662.00 530.00
C 665.13 530.03 670.98 531.03 670.00 526.00
C 672.63 519.05 672.28 508.80 677.00 503.00
C 677.00 503.00 677.00 502.50 677.00 502.00
C 677.00 502.00 677.00 501.50 677.00 501.00
C 670.13 501.62 660.82 499.20 655.00 500.00
C 652.80 500.30 653.96 501.49 653.00 502.00 Z"/>
</g>
<g fill="#FFFFFF" fill-opacity="0.15" stroke="#FFFFFF" stroke-opacity="0.9" stroke-width="0.5"><path d="
M 477.00 525.00 
C 471.92 531.84 468.53 540.79 467.00 549.00
C 465.55 556.80 466.34 565.21 465.00 573.00
C 463.82 579.84 461.48 585.91 459.00 592.00
C 458.80 593.31 458.52 593.84 458.00 595.00
C 453.88 604.15 448.10 610.90 441.00 618.00
C 439.75 619.25 438.36 620.73 437.00 622.00
C 430.59 627.98 423.15 632.72 415.00 636.00
C 406.14 639.56 398.53 640.67 389.00 642.00
C 387.80 642.17 385.81 642.93 384.00 643.00
C 379.53 643.18 375.24 642.93 371.00 644.00
C 362.21 646.21 353.13 651.37 346.00 657.00
C 336.47 664.53 328.27 677.31 326.00 689.00
C 325.76 690.23 325.13 692.25 325.00 693.00
C 323.92 699.17 324.79 705.89 324.00 712.00
C 322.87 720.70 320.35 728.32 317.00 736.00
C 309.19 753.88 295.00 767.02 278.00 776.00
C 274.59 777.80 270.88 779.67 267.00 781.00
C 263.09 782.34 259.11 783.22 255.00 784.00
C 246.30 785.65 237.26 786.48 228.00 786.00
C 230.66 791.39 231.47 797.26 233.00 803.00
C 233.55 805.05 234.51 806.89 235.00 809.00
C 237.21 818.49 248.28 814.50 257.00 813.00
C 264.46 811.71 271.91 809.62 279.00 807.00
C 282.27 805.79 285.92 804.53 289.00 803.00
C 292.91 801.07 298.37 798.47 302.00 796.00
C 308.07 791.88 314.59 786.41 320.00 781.00
C 321.54 779.46 323.58 777.53 325.00 776.00
C 329.82 770.79 334.58 763.87 338.00 758.00
C 341.41 752.13 346.17 744.14 348.00 738.00
C 348.00 737.07 347.83 735.92 348.00 735.00
C 349.92 724.43 352.97 713.65 354.00 703.00
C 354.00 698.17 353.96 694.26 356.00 690.00
C 359.11 683.49 364.53 678.10 371.00 675.00
C 377.60 671.85 383.72 672.70 391.00 672.00
C 398.52 671.27 407.48 669.34 415.00 667.00
C 417.48 666.23 419.37 665.27 422.00 665.00
C 426.40 663.34 431.62 660.42 436.00 658.00
C 454.98 647.54 468.74 632.19 480.00 614.00
C 483.44 608.44 486.90 601.85 489.00 596.00
C 491.62 588.71 492.88 580.69 494.00 573.00
C 495.16 565.05 494.40 556.59 497.00 549.00
C 498.45 544.78 499.99 542.22 503.00 539.00
C 507.68 533.99 511.39 531.64 518.00 530.00
C 529.69 527.10 541.13 532.69 547.00 543.00
C 548.06 544.87 549.36 546.70 550.00 549.00
C 547.69 566.51 569.04 563.06 580.00 569.00
C 579.46 563.06 580.71 556.91 580.00 551.00
C 578.85 541.47 574.18 532.32 569.00 524.00
C 568.63 523.41 568.51 522.55 568.00 522.00
C 554.13 507.13 539.50 500.22 519.00 501.00
C 501.94 501.65 487.11 511.41 477.00 525.00 Z"/>
</g>
<g fill="#FFFFFF" fill-opacity="0.15" stroke="#FFFFFF" stroke-opacity="0.9" stroke-width="0.5"><path d="
M 429.00 549.00 
C 424.11 550.67 418.82 551.33 414.00 553.00
C 412.69 553.54 411.56 554.41 410.00 554.00
C 410.51 561.03 408.41 567.44 405.00 573.00
C 402.05 577.82 399.05 580.48 394.00 583.00
C 389.20 585.40 384.07 587.08 378.00 586.00
C 378.03 589.17 377.13 592.12 376.00 595.00
C 374.42 600.76 373.11 606.43 371.00 612.00
C 370.56 613.17 370.09 613.64 370.00 615.00
C 376.90 614.26 384.14 615.98 391.00 615.00
C 397.84 614.02 408.05 610.04 414.00 606.00
C 419.46 602.30 425.36 595.65 429.00 590.00
C 431.54 586.06 434.63 581.16 436.00 577.00
C 436.19 575.12 436.63 573.75 437.00 572.00
C 438.40 565.40 439.23 555.93 438.00 549.00
C 437.61 546.82 436.34 546.83 436.00 546.00
C 435.86 545.97 429.89 548.69 429.00 549.00 Z"/>
</g>
<g fill="#FFFFFF" fill-opacity="0.15" stroke="#FFFFFF" stroke-opacity="0.9" stroke-width="0.5"><path d="
M 518.00 595.00 
C 517.01 601.97 514.36 608.44 512.00 615.00
C 516.33 615.00 520.67 615.00 525.00 615.00
C 531.63 615.00 537.28 616.45 543.00 618.00
C 543.76 617.83 545.23 617.88 546.00 618.00
C 554.13 619.23 563.26 624.78 570.00 629.00
C 575.87 632.67 580.09 637.09 585.00 642.00
C 587.03 644.03 589.28 645.69 591.00 648.00
C 600.01 660.12 604.61 673.31 607.00 688.00
C 608.27 695.80 608.48 704.97 610.00 713.00
C 610.63 716.34 611.73 719.57 612.00 723.00
C 613.90 728.08 618.34 733.72 622.00 738.00
C 625.38 741.96 628.73 745.24 633.00 748.00
C 639.71 752.33 647.12 755.75 655.00 757.00
C 660.23 757.83 671.93 760.26 677.00 758.00
C 677.00 757.50 677.00 756.50 677.00 756.00
C 677.00 755.50 677.00 755.00 677.00 755.00
C 672.58 749.85 672.64 741.42 671.00 735.00
C 670.58 733.37 669.01 731.12 669.00 729.00
C 664.50 729.25 660.21 728.93 656.00 728.00
C 648.30 725.53 641.70 718.33 639.00 711.00
C 636.47 704.16 637.71 697.35 637.00 690.00
C 636.47 684.56 634.40 677.66 633.00 672.00
C 632.60 670.39 632.46 668.63 632.00 667.00
C 628.31 654.01 620.38 638.93 612.00 628.00
C 609.59 624.85 606.00 620.78 603.00 618.00
C 598.84 614.15 593.55 610.15 589.00 607.00
C 583.32 603.06 577.14 599.82 571.00 597.00
C 569.90 596.50 568.88 595.46 568.00 595.00
C 556.73 589.16 538.03 584.43 525.00 586.00
C 523.33 586.00 521.67 586.00 520.00 586.00
C 520.38 589.20 518.64 592.43 518.00 595.00 Z"/>
</g>
<g fill="#FFFFFF" fill-opacity="0.15" stroke="#FFFFFF" stroke-opacity="0.9" stroke-width="0.5"><path d="
M 149.00 690.00 
C 145.98 691.06 143.05 692.04 140.00 693.00
C 134.38 695.82 123.15 694.35 126.00 704.00
C 130.96 704.08 135.76 706.53 140.00 708.00
C 142.26 708.78 144.70 709.23 147.00 710.00
C 149.59 709.93 151.28 712.63 154.00 712.00
C 154.04 709.67 153.95 707.33 154.00 705.00
C 154.08 700.87 154.63 696.07 154.00 692.00
C 154.00 690.67 154.00 689.33 154.00 688.00
C 152.46 689.06 150.66 689.41 149.00 690.00 Z"/>
</g>
<g fill="#FFFFFF" fill-opacity="0.15" stroke="#FFFFFF" stroke-opacity="0.9" stroke-width="0.5"><path d="
M 436.00 689.00 
C 435.51 689.08 434.40 688.80 434.00 689.00
C 428.26 691.93 421.51 694.39 415.00 696.00
C 405.11 698.45 405.22 702.61 415.00 705.00
C 421.90 706.68 428.89 708.87 435.00 712.00
C 435.76 712.09 436.74 712.96 437.00 713.00
C 438.60 713.25 438.10 712.23 439.00 712.00
C 441.75 705.10 436.94 695.18 439.00 688.00
C 437.84 688.18 437.03 688.82 436.00 689.00 Z"/>
</g>
<g fill="#FFFFFF" fill-opacity="0.15" stroke="#FFFFFF" stroke-opacity="0.9" stroke-width="0.5"><path d="
M 378.00 735.00 
C 376.36 742.55 372.75 749.53 371.00 757.00
C 374.60 756.68 378.38 757.00 382.00 757.00
C 384.96 757.00 388.05 756.74 391.00 757.00
C 398.73 757.68 407.39 760.61 414.00 764.00
C 414.16 764.08 415.92 764.97 416.00 765.00
C 433.84 771.86 447.08 786.47 456.00 803.00
C 457.41 805.60 458.91 808.06 460.00 811.00
C 461.73 815.70 462.91 820.10 464.00 825.00
C 465.64 832.41 465.87 841.08 467.00 849.00
C 467.85 854.97 468.71 861.44 471.00 867.00
C 472.67 871.06 477.22 877.62 480.00 881.00
C 481.75 883.13 484.87 885.32 487.00 887.00
C 491.74 890.74 497.69 894.81 503.00 897.00
C 515.46 902.13 533.79 901.33 546.00 896.00
C 550.96 893.83 555.69 890.24 560.00 887.00
C 566.72 881.95 571.50 874.48 575.00 867.00
C 579.31 857.79 580.57 848.57 580.00 838.00
C 579.77 833.79 579.23 829.00 578.00 825.00
C 575.90 818.19 570.80 810.62 566.00 805.00
C 560.59 798.67 554.41 794.47 547.00 791.00
C 541.10 788.24 534.66 786.13 528.00 786.00
C 526.66 785.97 525.34 786.00 524.00 786.00
C 520.57 786.00 515.24 787.04 512.00 786.00
C 511.91 790.95 515.66 798.11 517.00 803.00
C 518.84 809.71 517.64 813.97 525.00 815.00
C 532.16 816.00 542.35 818.53 546.00 826.00
C 546.00 826.00 546.00 826.50 546.00 827.00
C 551.61 830.51 551.41 841.01 551.00 847.00
C 550.71 851.25 549.39 855.41 547.00 859.00
C 544.87 862.20 541.23 866.02 538.00 868.00
C 533.56 870.72 529.25 871.00 524.00 871.00
C 518.50 871.00 515.40 870.32 511.00 868.00
C 507.32 866.06 504.78 864.49 502.00 861.00
C 498.74 856.91 497.13 853.18 496.00 848.00
C 494.38 840.58 495.25 832.55 494.00 825.00
C 492.72 817.29 489.71 809.34 487.00 802.00
C 484.52 795.28 481.69 788.09 478.00 782.00
C 475.35 777.62 471.46 773.01 468.00 769.00
C 459.13 758.72 448.65 749.70 437.00 743.00
C 432.14 740.20 425.95 736.74 421.00 735.00
C 419.16 734.81 417.68 734.51 416.00 734.00
C 407.38 731.37 399.36 729.00 390.00 729.00
C 386.33 729.00 382.67 729.00 379.00 729.00
C 378.26 729.83 378.25 733.84 378.00 735.00 Z"/>
</g>
<g fill="#FFFFFF" fill-opacity="0.15" stroke="#FFFFFF" stroke-opacity="0.9" stroke-width="0.5"><path d="
M 370.00 787.00 
C 361.60 788.77 355.26 792.48 348.00 797.00
C 348.00 797.00 347.16 796.77 347.00 797.00
C 345.08 799.75 342.35 801.65 340.00 804.00
C 334.21 809.79 330.55 817.56 328.00 825.00
C 327.06 827.75 325.33 831.51 325.00 834.00
C 325.00 836.00 325.00 838.00 325.00 840.00
C 325.00 845.22 324.97 850.09 326.00 855.00
C 326.76 858.60 327.50 862.60 329.00 866.00
C 332.31 873.48 338.69 881.11 345.00 887.00
C 345.54 887.51 346.44 887.61 347.00 888.00
C 354.15 892.89 361.62 896.96 370.00 899.00
C 373.58 899.87 377.14 900.00 381.00 900.00
C 385.14 900.00 391.74 901.46 392.00 898.00
C 392.15 896.07 390.62 891.92 390.00 890.00
C 388.09 884.12 384.82 877.79 385.00 871.00
C 367.51 874.34 349.72 856.51 354.00 840.00
C 354.92 834.88 355.90 830.34 359.00 826.00
C 362.17 821.56 365.41 820.10 370.00 818.00
C 377.01 814.80 385.35 813.34 393.00 817.00
C 397.45 819.13 402.33 822.63 405.00 827.00
C 407.56 831.18 408.23 835.26 409.00 840.00
C 410.46 848.98 410.92 858.91 413.00 868.00
C 417.07 885.78 424.72 902.91 437.00 917.00
C 440.57 921.10 445.86 926.60 450.00 930.00
C 452.40 931.97 456.22 934.09 459.00 936.00
C 466.17 940.92 474.24 945.84 482.00 949.00
C 485.13 950.27 488.71 951.08 492.00 952.00
C 499.52 954.10 506.89 956.00 515.00 956.00
C 521.33 956.00 527.67 956.13 534.00 956.00
C 537.84 955.92 541.33 955.76 545.00 955.00
C 548.01 954.38 551.73 952.98 555.00 952.00
C 559.24 950.73 563.93 949.88 568.00 948.00
C 575.20 944.67 583.57 939.69 590.00 935.00
C 591.57 933.86 593.35 932.27 595.00 931.00
C 602.06 925.53 609.73 917.09 615.00 910.00
C 619.75 903.60 623.63 896.20 627.00 889.00
C 629.64 883.36 631.27 877.92 633.00 872.00
C 633.40 870.63 633.66 869.43 634.00 868.00
C 635.66 861.03 639.94 847.36 637.00 840.00
C 636.18 839.06 636.23 839.39 635.00 839.00
C 631.48 837.88 624.35 835.38 620.98 835.02 C 617.60 834.67 609.74 829.32 608.00 832.00
C 610.32 837.36 608.76 845.68 608.00 851.00
C 607.99 856.67 606.66 861.76 605.00 867.00
C 602.54 874.78 599.27 882.18 595.00 889.00
C 590.27 896.57 583.88 903.07 577.00 909.00
C 574.46 911.20 571.77 912.35 569.00 914.00
C 561.91 918.21 556.15 921.53 548.00 924.00
C 533.17 928.50 517.41 929.24 502.00 925.00
C 495.48 923.21 489.00 921.45 483.00 918.00
C 478.53 915.43 474.89 912.04 471.00 909.00
C 466.34 905.36 462.03 901.67 458.00 897.00
C 455.59 894.20 453.89 891.02 452.00 888.00
C 447.80 881.28 444.46 874.77 442.00 867.00
C 439.87 860.26 438.39 853.20 438.00 846.00
C 437.11 829.65 433.95 815.56 423.00 803.00
C 420.97 800.67 417.42 797.78 415.00 796.00
C 414.70 795.78 414.05 795.35 414.00 795.00
C 407.53 791.84 401.22 788.35 394.00 787.00
C 394.00 787.00 393.38 787.22 393.00 787.00
C 387.58 783.90 375.75 785.79 370.00 787.00 Z"/>
</g>
<g fill="#FFFFFF" fill-opacity="0.15" stroke="#FFFFFF" stroke-opacity="0.9" stroke-width="0.5"><path d="
M 278.00 837.00 
C 273.78 838.32 260.61 840.88 270.00 846.00
C 273.16 846.05 276.40 848.16 279.00 849.00
C 285.25 850.19 291.22 852.34 297.00 855.00
C 296.91 853.01 297.12 850.99 297.00 849.00
C 295.26 844.06 295.45 836.35 297.00 831.00
C 290.48 832.41 284.36 835.02 278.00 837.00 Z"/>
</g>
<g fill="#FFFFFF" fill-opacity="0.15" stroke="#FFFFFF" stroke-opacity="0.9" stroke-width="0.5"><path d="
M 234.00 880.00 
C 233.79 883.15 232.98 885.14 232.00 888.00
C 230.54 892.26 229.34 896.67 228.00 901.00
C 229.99 900.72 231.78 899.52 234.00 900.00
C 248.66 899.30 263.31 901.49 276.00 908.00
C 277.62 908.83 278.71 910.18 280.00 911.00
C 296.50 921.48 310.97 933.96 318.00 953.00
C 320.82 960.64 322.83 967.84 324.00 976.00
C 326.26 991.79 325.70 1006.83 336.00 1020.00
C 339.14 1024.01 343.89 1029.07 348.00 1032.00
C 353.68 1036.06 362.20 1039.39 369.00 1041.00
C 384.88 1044.75 400.22 1043.24 415.00 1050.00
C 434.82 1059.06 450.87 1074.54 459.00 1095.00
C 461.52 1101.34 463.78 1107.94 465.00 1115.00
C 466.23 1122.14 465.60 1129.87 467.00 1137.00
C 468.47 1144.46 471.12 1152.46 475.00 1159.00
C 477.84 1163.79 483.33 1169.53 488.00 1173.00
C 492.13 1176.07 497.20 1177.95 501.00 1181.00
C 501.50 1181.00 502.00 1181.00 502.00 1181.00
C 509.48 1184.08 516.60 1185.17 525.00 1185.00
C 532.55 1184.85 538.98 1182.89 546.00 1181.00
C 546.05 1180.65 546.67 1180.17 547.00 1180.00
C 551.99 1177.41 556.57 1174.50 561.00 1171.00
C 564.96 1167.34 569.34 1162.29 572.00 1158.00
C 575.74 1151.96 579.18 1144.00 580.00 1137.00
C 580.78 1130.35 580.33 1122.34 579.00 1116.00
C 575.50 1099.38 562.80 1081.98 547.00 1075.00
C 541.57 1072.60 532.56 1070.54 527.00 1070.00
C 521.67 1070.00 516.33 1070.00 511.00 1070.00
C 514.42 1077.03 516.14 1084.51 518.00 1092.00
C 519.64 1098.64 521.75 1098.62 528.00 1100.00
C 559.38 1106.96 557.84 1155.39 524.00 1156.00
C 515.16 1156.16 508.86 1153.28 503.00 1147.00
C 499.96 1143.75 498.57 1141.19 497.00 1137.00
C 495.66 1133.43 495.09 1130.32 495.00 1126.00
C 494.77 1114.31 492.68 1102.76 489.00 1092.00
C 483.18 1075.00 473.04 1057.94 460.00 1045.00
C 459.54 1044.55 458.51 1043.41 458.00 1043.00
C 451.60 1037.83 443.97 1032.23 437.00 1028.00
C 432.28 1025.14 426.23 1022.93 421.00 1021.00
C 418.75 1020.17 416.00 1018.55 414.00 1018.00
C 407.17 1016.12 399.11 1014.56 392.00 1014.00
C 376.14 1012.74 363.19 1013.27 356.00 997.00
C 353.13 990.50 353.57 983.12 353.00 976.00
C 352.26 966.70 349.98 957.70 347.00 949.00
C 345.05 943.29 343.09 937.31 340.00 932.00
C 326.01 907.94 304.60 888.41 279.00 878.00
C 271.24 874.84 262.28 873.18 254.00 872.00
C 248.04 871.42 242.21 870.56 236.00 871.00
C 236.86 874.31 234.65 877.44 234.00 880.00 Z"/>
</g>
<g fill="#FFFFFF" fill-opacity="0.15" stroke="#FFFFFF" stroke-opacity="0.9" stroke-width="0.5"><path d="
M 659.00 883.00 
C 657.83 886.59 657.22 890.43 656.00 894.00
C 655.17 896.41 654.19 898.72 653.00 901.00
C 654.00 901.00 655.00 901.00 656.00 901.00
C 660.03 901.72 664.75 900.00 669.00 900.00
C 671.56 900.00 675.25 900.75 677.00 899.00
C 677.57 898.07 674.41 891.19 674.00 890.00
C 669.20 884.26 673.32 868.42 662.00 871.00
C 662.74 875.44 660.16 879.42 659.00 883.00 Z"/>
</g>
<g fill="#FFFFFF" fill-opacity="0.15" stroke="#FFFFFF" stroke-opacity="0.9" stroke-width="0.5"><path d="
M 370.00 930.00 
C 373.52 936.91 374.06 947.57 378.00 954.00
C 381.15 954.70 389.08 958.04 393.00 960.00
C 405.08 963.52 409.71 977.60 410.00 989.00
C 411.59 988.55 412.69 989.52 414.00 990.00
C 420.93 992.53 430.80 996.85 438.00 998.00
C 438.30 988.74 438.14 979.65 436.00 971.00
C 434.60 965.34 432.39 958.90 429.00 954.00
C 425.44 948.86 420.05 942.76 415.00 939.00
C 408.38 934.08 399.89 930.75 392.00 929.00
C 388.91 928.31 386.32 928.07 383.00 928.00
C 379.23 927.92 373.56 929.14 370.00 928.00
C 369.88 928.47 369.80 929.60 370.00 930.00 Z"/>
</g>
<g fill="#FFFFFF" fill-opacity="0.15" stroke="#FFFFFF" stroke-opacity="0.9" stroke-width="0.5"><path d="
M 654.00 929.00 
C 651.22 929.62 648.86 930.71 646.00 931.00
C 642.65 932.38 637.15 935.03 634.00 937.00
C 624.37 943.03 615.57 955.58 612.00 966.00
C 610.96 969.03 609.44 972.84 609.00 976.00
C 608.18 981.85 608.16 990.15 609.00 996.00
C 609.50 999.47 611.44 1004.46 613.00 1008.00
C 614.83 1012.14 617.36 1017.55 620.00 1021.00
C 623.57 1025.66 630.34 1031.11 635.00 1034.00
C 641.38 1037.95 648.70 1040.74 656.00 1042.00
C 662.81 1043.17 670.14 1043.44 677.00 1042.00
C 689.38 1039.39 700.67 1031.75 709.00 1022.00
C 715.58 1014.30 718.54 1006.49 721.00 997.00
C 721.38 995.54 721.83 994.63 722.00 993.00
C 723.42 979.53 720.33 963.79 713.00 953.00
C 709.82 948.32 704.72 942.37 700.00 939.00
C 696.79 936.70 691.53 933.63 688.00 932.00
C 684.74 930.49 680.49 929.73 677.00 929.00
C 669.78 927.48 661.22 927.40 654.00 929.00
M 677.00 959.00 
C 683.35 961.90 690.01 969.61 692.00 976.00
C 694.04 982.54 693.72 991.77 691.00 998.00
C 688.11 1004.62 682.41 1009.17 676.00 1012.00
C 669.44 1014.90 661.58 1014.71 655.00 1012.00
C 647.48 1008.91 644.67 1004.59 641.00 998.00
C 637.02 990.86 636.22 983.35 639.00 975.00
C 641.38 967.86 648.95 960.47 656.00 958.00
C 662.06 955.87 671.24 956.37 677.00 959.00 Z"/>
</g>
<g fill="#FFFFFF" fill-opacity="0.15" stroke="#FFFFFF" stroke-opacity="0.9" stroke-width="0.5"><path d="
M 467.00 996.00 
C 468.14 1003.95 473.12 1013.24 478.00 1020.00
C 478.90 1021.24 479.90 1022.86 481.00 1024.00
C 487.06 1030.30 495.40 1035.91 503.00 1039.00
C 509.79 1041.76 517.51 1043.00 525.00 1043.00
C 528.33 1043.00 531.67 1043.00 535.00 1043.00
C 532.14 1035.50 529.95 1027.77 528.00 1020.00
C 527.47 1017.89 526.77 1015.74 526.00 1014.00
C 507.96 1015.32 492.56 999.11 495.00 981.00
C 489.21 980.24 483.42 978.98 478.00 977.00
C 474.01 975.24 470.10 973.31 466.00 972.00
C 466.38 980.11 465.86 988.05 467.00 996.00 Z"/>
</g>
<g fill="#FFFFFF" fill-opacity="0.15" stroke="#FFFFFF" stroke-opacity="0.9" stroke-width="0.5"><path d="
M 145.00 994.00 
C 148.08 995.08 151.62 995.96 154.00 998.00
C 154.00 998.00 154.50 998.00 155.00 998.00
C 155.70 994.20 154.44 990.67 154.00 987.00 C 153.56 983.33 155.77 979.55 155.00 976.00
C 155.00 975.00 155.00 974.00 155.00 973.00
C 149.37 974.88 143.73 977.48 138.02 979.02 C 132.32 980.57 123.37 980.36 126.00 989.00
C 132.58 989.72 138.84 991.84 145.00 994.00 Z"/>
</g>
<g fill="#FFFFFF" fill-opacity="0.15" stroke="#FFFFFF" stroke-opacity="0.9" stroke-width="0.5"><path d="
M 552.00 998.00 
C 552.71 1005.57 554.49 1013.85 557.00 1021.00
C 559.58 1028.34 562.49 1037.70 567.00 1044.00
C 567.44 1044.61 568.46 1045.18 569.00 1046.00
C 572.16 1050.79 575.43 1055.48 579.00 1060.00
C 582.19 1063.45 586.42 1067.88 590.00 1071.00
C 596.83 1076.95 605.17 1081.68 613.00 1086.00
C 616.75 1088.07 621.32 1090.61 625.00 1092.00
C 627.78 1092.29 630.35 1093.16 633.00 1094.00
C 640.31 1096.31 648.28 1098.32 656.00 1099.00
C 660.38 1099.39 664.96 1098.28 669.00 1100.00
C 668.71 1097.51 670.64 1095.61 670.00 1093.00
C 671.95 1085.24 675.61 1077.94 677.00 1070.00
C 676.40 1069.71 674.68 1070.00 674.00 1070.00
C 668.60 1071.19 662.32 1070.95 657.00 1070.00
C 648.83 1069.80 641.04 1066.90 634.00 1064.00
C 627.40 1061.28 620.95 1058.42 615.00 1054.00
C 608.97 1049.52 602.53 1044.09 598.00 1038.00
C 588.99 1025.89 583.58 1012.67 581.00 998.00
C 580.00 992.29 577.46 978.69 580.00 973.00
C 570.96 976.87 561.62 979.93 552.00 982.00
C 552.37 987.30 551.50 992.71 552.00 998.00 Z"/>
</g>
<g fill="#FFFFFF" fill-opacity="0.15" stroke="#FFFFFF" stroke-opacity="0.9" stroke-width="0.5"><path d="
M 228.00 1071.00 
C 231.58 1080.03 235.23 1089.15 236.00 1099.00
C 243.27 1098.75 250.25 1100.73 256.00 1105.00
C 260.05 1108.01 262.80 1111.65 265.00 1116.00
C 267.60 1120.53 268.32 1125.66 268.00 1131.00
C 271.91 1131.23 275.38 1132.76 279.00 1134.00
C 281.58 1134.88 284.70 1136.25 287.00 1137.00
C 289.17 1137.70 292.78 1138.94 295.00 1139.00
C 297.55 1137.41 295.66 1131.12 296.00 1128.00 C 296.34 1124.88 295.67 1119.18 295.00 1116.00
C 293.37 1108.24 289.80 1099.46 285.00 1093.00
C 283.46 1090.93 281.06 1087.91 279.00 1086.00
C 273.06 1080.51 265.33 1076.71 258.00 1074.00
C 247.63 1070.17 238.09 1072.06 228.00 1071.00 Z"/>
</g>
<g fill="#FFFFFF" fill-opacity="0.15" stroke="#FFFFFF" stroke-opacity="0.9" stroke-width="0.5"><path d="
M 370.00 1071.00 
C 370.08 1071.49 370.00 1072.50 370.00 1073.00
C 373.14 1079.15 375.26 1086.07 377.00 1093.00
C 377.49 1094.94 378.31 1096.82 378.00 1099.00
C 383.43 1098.38 388.28 1099.92 393.00 1102.00
C 398.86 1104.80 404.27 1110.02 407.00 1116.00
C 409.08 1120.54 409.51 1125.97 410.00 1131.00
C 415.80 1132.11 421.48 1133.82 427.00 1136.00
C 430.08 1137.14 433.27 1138.57 436.00 1140.00
C 436.39 1140.21 437.00 1140.00 437.00 1140.00
C 441.32 1135.82 437.13 1119.20 436.00 1114.00
C 434.40 1106.67 431.56 1099.14 427.00 1093.00
C 424.01 1088.98 419.16 1084.00 415.00 1081.00
C 408.80 1076.53 401.34 1073.55 394.00 1072.00
C 390.72 1071.31 385.23 1069.72 382.00 1070.00 C 378.77 1070.28 371.69 1068.40 370.00 1071.00 Z"/>
</g>
<g fill="#FFFFFF" fill-opacity="0.15" stroke="#FFFFFF" stroke-opacity="0.9" stroke-width="0.5"><path d="
M 608.00 1116.00 
C 611.69 1120.82 606.95 1131.82 608.00 1137.00
C 608.19 1137.96 607.84 1139.03 608.00 1140.00
C 609.54 1140.37 610.40 1138.57 612.00 1139.00
C 614.43 1138.60 616.43 1137.26 619.00 1137.00
C 623.25 1135.39 629.86 1134.05 634.00 1132.00
C 635.14 1131.97 635.72 1130.47 637.00 1131.00
C 638.91 1128.28 635.24 1125.70 635.00 1125.00
C 631.49 1122.15 624.52 1122.78 620.69 1120.31 C 616.87 1117.83 611.26 1116.49 608.00 1116.00 Z"/>
</g>
<g fill="#FFFFFF" fill-opacity="0.15" stroke="#FFFFFF" stroke-opacity="0.9" stroke-width="0.5"><path d="
M 766.00 1181.00 
C 766.00 1188.33 766.00 1195.67 766.00 1203.00
C 766.00 1207.50 766.82 1213.33 765.00 1217.00
C 767.73 1218.64 767.16 1207.30 767.00 1203.00 C 766.84 1198.70 767.28 1189.96 767.00 1185.00 C 766.72 1180.04 768.03 1172.34 766.00 1168.00
C 767.08 1171.60 766.00 1177.22 766.00 1181.00 Z"/>
</g>
<g fill="#FFFFFF" fill-opacity="0.15" stroke="#FFFFFF" stroke-opacity="0.9" stroke-width="0.5"><path d="
M 515.00 1224.00 
C 516.81 1229.58 519.61 1235.69 520.00 1242.00
C 521.67 1242.00 523.33 1242.00 525.00 1242.00
C 525.47 1237.88 529.40 1229.68 531.00 1225.00
C 532.22 1220.83 533.96 1216.89 536.00 1213.00
C 532.00 1213.00 528.00 1213.00 524.00 1213.00
C 519.46 1213.53 515.30 1212.36 511.00 1212.00
C 512.87 1215.83 513.71 1220.02 515.00 1224.00 Z"/>
</g>
<g fill="#FFFFFF" fill-opacity="0.15" stroke="#FFFFFF" stroke-opacity="0.9" stroke-width="0.5"><path d="
M 145.00 1262.00 
C 141.19 1263.53 127.81 1264.60 126.00 1268.00
C 126.90 1272.28 125.28 1276.58 124.00 1280.00
C 122.71 1283.45 121.24 1286.19 119.00 1289.00
C 113.67 1295.69 106.86 1297.26 99.00 1299.00
C 97.41 1299.35 95.61 1298.73 94.00 1299.00
C 94.07 1303.93 92.44 1308.45 91.00 1313.00
C 89.81 1318.17 87.58 1323.00 86.00 1328.00
C 92.10 1328.41 98.26 1327.88 104.00 1327.00
C 110.54 1326.00 117.04 1324.95 123.00 1322.00
C 129.17 1318.95 136.01 1313.35 141.00 1308.00
C 141.42 1307.40 141.61 1306.57 142.00 1306.00
C 145.30 1301.17 149.03 1296.28 151.00 1291.00
C 153.42 1284.52 153.45 1277.98 154.00 1271.00
C 154.93 1266.79 155.25 1262.50 155.00 1258.00
C 151.22 1257.97 148.35 1260.65 145.00 1262.00 Z"/>
</g>
<g fill="#FFFFFF" fill-opacity="0.15" stroke="#FFFFFF" stroke-opacity="0.9" stroke-width="0.5"><path d="
M 392.00 1329.00 
C 392.26 1327.42 392.14 1326.27 392.00 1324.00
C 385.34 1317.04 390.76 1297.54 378.00 1299.00
C 377.32 1309.25 372.75 1318.37 370.00 1328.00
C 374.38 1330.44 388.99 1324.30 392.00 1329.00 Z"/>
</g>
</svg>